<?xml version="1.0" encoding="UTF-8"?>
<svg width="350px" height="150px" viewBox="0 0 350 150" version="1.1" xmlns="http://www.w3.org/2000/svg" xmlns:xlink="http://www.w3.org/1999/xlink">
    <!-- Generator: Sketch 42 (36781) - http://www.bohemiancoding.com/sketch -->
    <title>experience-company-logo3</title>
    <desc>Created with Sketch.</desc>
    <defs></defs>
    <g id="Page-1" stroke="none" stroke-width="1" fill="none" fill-rule="evenodd">
        <g id="experience-company-logo3" fill="#AAAAAA">
            <path d="M99.4376565,92.5666778 L99.6814381,93.2980226 L99.9252197,94.0903129 L100.108056,94.8826032 L99.9861651,95.9796205 L99.4986019,96.954747 L98.8282024,97.1985286 L97.6092943,97.259474 L94.562024,97.3204194 L89.1988282,97.3204194 L86.0906125,97.3813648 L84.1403595,97.3813648 L83.4090146,97.3204194 L82.2510519,97.259474 L81.21498,97.0156924 L80.605526,96.65002 L79.9960719,95.6748935 L79.5694541,94.6388216 L79.3866178,93.9684221 L79.1428362,93.1761318 L78.96,92.5057324 L78.7162184,91.7743875 L78.1067643,89.5803529 L77.8020373,88.9099534 L77.6192011,88.1786085 L77.3754194,87.4472636 L77.1925832,86.7768642 L76.9488016,85.9845739 L76.7659654,85.3141744 L76.5221838,84.643775 L76.3393475,83.9124301 L76.0955659,83.1810852 L75.9127297,82.4497403 L75.6689481,81.7793409 L75.364221,80.8042144 L75.1813848,79.9509787 L74.9985486,79.4634154 L74.6938216,78.7320706 L74.3890945,77.8178895 L74.0843675,76.842763 L73.7796405,75.7457457 L73.5968043,75.0144008 L72.9873502,73.1860386 L72.3169507,71.0529494 L71.463715,68.1275699 L70.9761518,66.7258256 L70.549534,65.2631358 L70.1838615,64.1661185 L69.9400799,63.3128828 L69.3306258,61.4845206 L68.9649534,60.2656125 L68.4773901,58.8029228 L68.2336085,57.5840146 L68.1117177,56.4869973 L68.1117177,55.6947071 L68.8430626,55.0243076 L70.1229161,54.6586352 L71.2199334,54.7195806 L72.1341145,54.780526 L73.8405859,54.6586352 L74.9985486,54.6586352 L76.2174567,54.7195806 L76.9488016,54.9633622 L77.4363648,55.0243076 L78.1677097,54.780526 L79.0209454,54.9024168 L79.4475632,55.085253 L79.3866178,55.2680892 L79.3866178,55.4509254 L79.5085087,55.38998 L79.5085087,55.085253 L79.5694541,54.8414714 L80.1179627,54.7195806 L81.3368708,54.6586352 L82.0072703,54.6586352 L83.6527963,54.7195806 L85.1764314,54.7195806 L86.2734487,54.6586352 L86.8829028,54.9024168 L87.5533023,55.5728162 L88.1627563,56.4260519 L88.3455925,57.035506 L88.8331558,58.2544141 L89.1378828,58.985759 L89.320719,59.7171039 L89.5645007,60.3875033 L89.7473369,61.1797936 L90.3567909,63.2519374 L90.6005726,63.9832823 L91.0271904,65.3850266 L91.270972,66.1163715 L91.8194807,67.8228429 L92.1242077,68.8589148 L92.3679893,69.5902597 L92.5508256,70.2606591 L92.7946072,70.9310586 L93.0383888,71.6624035 L93.221225,72.3328029 L93.9525699,74.8315646 L94.2572969,75.8676365 L94.562024,76.9646538 L94.9276964,77.9397803 L95.1105326,78.7320706 L95.3543142,79.40247 L95.6590413,80.0728695 L95.8418775,80.743269 L96.0856591,81.5355593 L96.4513316,82.8763582 L96.6951132,83.6686485 L97.3045672,85.7407923 L97.6702397,86.8378096 L97.9749667,87.9348269 L98.2796937,88.7271172 L98.767257,90.2507523 L99.071984,91.408715 L99.4376565,92.5666778 Z M72.1950599,77.0255992 L72.3778961,77.6350533 L72.5607324,78.3054527 L72.804514,79.0367976 L73.1701864,80.0728695 L73.5358589,81.1698868 L73.9015313,82.6325766 L73.9624767,83.3639214 L73.6577497,84.4609387 L73.109241,85.3751198 L72.0122237,86.4721372 L71.4027696,86.898755 L70.549534,87.6300999 L69.3915712,88.6661718 L67.0756458,90.6773702 L66.5271372,91.2258788 L65.4910652,92.2010053 L64.1502663,93.358968 L63.6017577,93.8465313 L62.748522,94.5778762 L62.0171771,95.309221 L61.4686684,95.7967843 L60.9201598,96.3452929 L60.3716511,96.7719108 L59.3965246,97.0156924 L58.6042344,96.7109654 L58.2385619,95.9796205 L57.9338349,95.309221 L57.6291079,94.5778762 L57.3853262,93.9074767 L57.20249,93.1151864 L56.9587084,92.444787 L56.593036,90.9820972 L56.2883089,89.9460253 L55.8616911,88.4833356 L54.94751,85.6189015 L53.2410386,79.8900333 L52.3268575,77.0255992 L51.4736218,74.2221105 L50.6203862,71.3576764 L50.3156591,70.2606591 L49.8890413,69.1636418 L49.5843142,68.0666245 L49.2186418,66.9696072 L48.4263515,64.4099001 L48.2435153,63.6785553 L47.9997337,62.886265 L47.6950067,62.2158655 L47.5121704,61.4845206 L47.2683888,60.6922304 L47.0855526,59.9608855 L46.7198802,58.9248136 L46.3542077,57.4621238 L46.2932623,56.1213249 L46.5979893,55.1461984 L47.3293342,54.8414714 L48.5482423,54.7195806 L49.7062051,54.7195806 L50.4984953,54.780526 L52.3878029,54.780526 L55.556964,54.6586352 L62.2000133,54.6586352 L63.4189214,54.7195806 L64.4549933,54.9024168 L65.003502,55.2680892 L65.6739015,56.1822703 L66.1005193,57.1573968 L66.3443009,57.8887417 L66.7099734,59.3514314 L67.0756458,60.3875033 L67.3803728,61.545466 L67.6241545,62.2158655 L67.8069907,62.9472104 L68.1117177,63.7395007 L68.2945539,64.4099001 L68.599281,65.445972 L68.9649534,66.5429893 L69.1477896,67.2743342 L69.4525166,68.2494607 L70.3057523,71.1138948 L70.7323702,72.1499667 L70.9152064,72.8203662 L71.158988,73.5517111 L71.3418242,74.2830559 L71.6465513,75.2581824 L72.1950599,77.0255992 Z M54.8865646,92.0791145 L55.1303462,92.6885686 L55.4350732,93.358968 L55.6788549,94.0903129 L55.8616911,95.1263848 L55.8007457,96.2234021 L55.4350732,96.7719108 L54.8256192,97.0766378 L54.0942743,97.259474 L53.4238748,97.3204194 L52.6315846,97.259474 L51.9611851,97.1985286 L46.5370439,97.1985286 L43.6726099,97.259474 L41.4785752,97.259474 L38.4922503,97.3204194 L35.140253,97.3204194 L34.4698535,97.259474 L33.6775632,96.65002 L33.19,95.6748935 L33.3728362,94.5169308 L33.6775632,93.358968 L33.8603995,92.6885686 L34.1041811,92.0181691 L34.2870173,91.408715 L34.4698535,90.6773702 L34.7745806,89.6412983 L35.2011984,88.2395539 L36.1153795,85.4970107 L36.9686152,82.693522 L37.5780692,80.6213782 L38.0656325,79.2196338 L38.9188682,76.4770905 L39.7721039,73.6736019 L40.0768309,72.5765846 L40.4425033,71.6014581 L40.8691212,70.1997137 L41.600466,67.8837883 L41.9051931,66.8477164 L42.2099201,65.7506991 L42.3927563,65.0193542 L42.6365379,64.3489547 L42.941265,63.6176099 L43.245992,62.9472104 L43.3678828,62.6424834 L43.6116644,62.2158655 L44.2820639,61.6673569 L45.196245,61.9720839 L46.0494807,62.7643742 L46.2932623,63.6176099 L46.5979893,64.7146272 L47.0855526,66.2992077 L47.3902796,67.396225 L47.6950067,68.4322969 L48.0606791,69.5293142 L48.3654061,70.3216045 L48.6091877,71.3576764 L48.792024,71.9671305 L49.096751,72.7594208 L49.3405326,73.7954927 L49.9499867,75.7457457 L50.3766045,77.14749 L50.6813316,78.1226165 L50.9860586,79.2196338 L51.2298402,79.8290879 L51.4126764,80.4994874 L51.7174035,81.5355593 L52.1440213,82.8763582 L52.3878029,83.9124301 L52.6315846,84.5828296 L52.9363116,85.1922836 L53.1191478,85.8626831 L53.2410386,86.5330826 L53.4238748,87.203482 L53.6676565,87.8738815 L53.8504927,88.544281 L54.2771105,90.0069707 L54.5818375,90.9820972 L54.8865646,92.0791145 Z M47.5731158,86.2893009 L47.9387883,85.8626831 L48.0606791,85.3751198 L47.9997337,85.1313382 L47.6950067,85.0703928 L47.5731158,85.3751198 L47.3293342,85.9236285 L47.5731158,86.2893009 Z M81.8853795,57.1573968 L81.8244341,56.6698336 L81.3368708,56.730779 L81.1540346,57.1573968 L81.3978162,57.5230692 L81.6415979,57.5840146 L81.8853795,57.1573968 Z M72.3169507,56.0603795 L72.6216778,56.2432157 L72.804514,56.4869973 L73.0482956,56.7917244 L73.2311318,56.9745606 L73.413968,57.035506 L73.3530226,56.8526698 L73.109241,56.4260519 L72.9873502,56.0603795 L72.8654594,55.7556525 L72.6216778,55.7556525 L72.3169507,56.0603795 Z M59.5793609,67.2133888 L60.1278695,67.7009521 L60.3716511,67.6400067 L60.1278695,67.396225 L59.7012517,66.8477164 L59.3355792,66.6648802 L59.5793609,67.2133888 Z M46.7198802,94.0903129 L46.6589348,94.0293675 L46.5370439,93.9684221 L46.4760985,93.9074767 L46.3542077,93.4199134 L45.9885353,92.9932956 L45.8056991,93.2370772 L46.1713715,93.7855859 L46.4760985,93.9684221 L46.6589348,94.0903129 L46.7198802,94.0903129 Z M45.7447537,84.5218842 L45.8056991,85.0094474 L46.1104261,85.4970107 L46.0494807,85.6798469 L46.1104261,85.6798469 L46.1713715,85.4970107 L46.0494807,84.8266112 L45.7447537,84.5218842 Z M84.9935952,57.8887417 L84.9935952,57.7059055 L84.6888682,57.4011784 L84.3231957,57.2792876 L84.4450866,57.5840146 L84.7498136,57.8277963 L84.9935952,57.8887417 Z M54.5818375,76.9646538 L54.2161651,76.9646538 L53.9114381,77.0865446 L53.8504927,77.2693808 L53.8504927,77.452217 L53.9114381,77.3303262 L54.0333289,77.2693808 L54.4599467,77.2693808 L54.5818375,76.9646538 Z M48.7310786,95.7358389 L48.6091877,95.6139481 L48.4872969,95.5530027 L47.9997337,95.5530027 L47.6950067,95.7358389 L48.1825699,95.7358389 L48.5482423,95.6748935 L48.6701332,95.7358389 L48.7310786,95.8577297 L48.7310786,95.7358389 Z M55.3741278,62.886265 L55.4350732,63.495719 L55.6788549,63.495719 L55.556964,63.2519374 L55.556964,63.0691012 L55.6179095,62.7643742 L55.3741278,62.886265 Z M59.7012517,75.0753462 L59.3355792,74.89251 L59.2746338,75.0144008 L59.3965246,75.2581824 L59.7012517,75.2581824 L59.8840879,75.0753462 L59.7012517,75.0753462 Z M59.45747,61.3016844 L59.5184154,61.3626298 L59.5184154,62.0939747 L59.7012517,61.7892477 L59.7012517,61.3626298 L59.5793609,61.3016844 L59.45747,61.3016844 Z M54.4599467,55.5728162 L54.7646738,55.6947071 L55.1303462,55.6947071 L55.0694008,55.5118708 L54.7037284,55.4509254 L54.4599467,55.5728162 Z M94.8058056,91.0430426 L94.8058056,90.6164248 L94.7448602,90.2507523 L94.562024,90.1898069 L94.562024,90.3726431 L94.7448602,90.494534 L94.6839148,90.6164248 L94.6839148,91.0430426 L94.8058056,91.0430426 Z M53.4848202,60.9969574 L53.301984,61.4845206 L53.4848202,61.545466 L53.6676565,60.9969574 L53.4848202,60.9969574 Z M56.4711451,75.3800732 L56.593036,75.197237 L56.5320905,75.1362916 L56.5320905,75.197237 L56.3492543,75.0753462 L56.1054727,74.9534554 L56.1664181,75.2581824 L56.4711451,75.3800732 Z M40.5034487,86.1674101 L40.0158855,86.2893009 L40.1987217,86.5330826 L40.5034487,86.1674101 Z M49.401478,92.2619507 L49.5233688,91.8353329 L49.096751,92.2619507 L49.401478,92.2619507 Z M52.2659121,92.3838415 L52.3268575,92.6276232 L52.5096937,92.749514 L52.6315846,92.8104594 L52.5096937,92.5057324 L52.2659121,92.3838415 Z M48.3044607,78.8539614 L48.2435153,78.7320706 L48.1825699,78.4882889 L48.1216245,78.7320706 L48.2435153,78.9149068 L48.4263515,79.0367976 L48.5482423,78.9758522 L48.4263515,78.8539614 L48.3044607,78.8539614 Z M42.941265,92.3228961 L43.1850466,92.3838415 L43.245992,92.444787 L43.245992,92.3838415 L43.0022104,92.1400599 L42.6974834,92.1400599 L42.941265,92.3228961 Z M76.4612383,56.4260519 L76.0955659,56.3041611 L75.7908389,56.3651065 L76.2174567,56.4869973 L76.4612383,56.4260519 Z M59.9450333,59.9608855 L60.0669241,59.8999401 L60.0059787,59.5342676 L60.0059787,59.4123768 L59.8840879,59.595213 L59.9450333,59.9608855 Z M57.8728895,66.6039348 L57.5681625,66.9086618 L57.507217,67.2133888 L57.7509987,66.9086618 L57.8728895,66.6039348 Z M62.0781225,64.4099001 L62.1390679,64.6536818 L62.0781225,64.9584088 L62.0781225,65.0193542 L62.1390679,65.0193542 L62.2609587,64.836518 L62.2000133,64.5927364 L62.0781225,64.4099001 Z M69.3306258,57.4621238 L69.0258988,57.6449601 L68.9649534,57.8277963 L69.3306258,57.5840146 L69.3306258,57.4621238 Z M48.6091877,89.9460253 L48.3654061,89.9460253 L48.1216245,90.0679161 L48.3654061,90.1288615 L48.6091877,89.9460253 Z M61.4686684,69.041751 L61.3467776,69.2855326 L61.4686684,69.4074234 L61.5905593,69.1636418 L61.4686684,69.041751 Z M47.2683888,77.0255992 L47.0855526,76.9037084 L47.0855526,77.14749 L47.2683888,77.2693808 L47.2683888,77.0255992 Z M63.1751398,69.4683688 L62.9313582,69.346478 L62.6875766,69.4074234 L62.9923036,69.5293142 L63.1751398,69.4683688 Z M51.7174035,94.5169308 L51.7783489,94.1512583 L51.5345672,94.3340945 L51.7174035,94.5169308 Z M52.2659121,88.2395539 L52.4487483,88.2395539 L52.5096937,88.3004993 L52.5096937,88.2395539 L52.4487483,88.0567177 L52.3268575,88.1176631 L52.2049667,88.1176631 L52.2659121,88.2395539 Z M62.4437949,61.7283023 L62.6875766,61.9720839 L62.748522,61.8501931 L62.5047403,61.6673569 L62.4437949,61.7283023 Z M42.6974834,85.8626831 L42.8193742,85.8626831 L42.941265,85.6189015 L43.0022104,85.4360652 L42.8803196,85.5579561 L42.8193742,85.6798469 L42.6974834,85.8626831 Z M53.3629294,73.8564381 L53.1800932,73.6736019 L53.1800932,73.8564381 L53.301984,73.9783289 L53.3629294,74.1002197 L53.3629294,73.8564381 Z M75.6080027,55.6947071 L75.5470573,55.4509254 L75.3032756,55.5728162 L75.6080027,55.6947071 Z M78.1067643,56.730779 L77.9848735,56.5479427 L77.7410919,56.3651065 L77.8020373,56.5479427 L78.1067643,56.730779 Z M58.1166711,78.3663981 L57.9338349,78.2445073 L57.7509987,78.1835619 L57.7509987,78.3054527 L57.9338349,78.3663981 L58.1166711,78.3663981 Z M65.2472836,87.4472636 L65.003502,87.7519907 L65.003502,87.8129361 L65.1253928,87.7519907 L65.1863382,87.6300999 L65.2472836,87.5691545 L65.308229,87.4472636 L65.2472836,87.4472636 Z M67.1365912,83.7905393 L67.1365912,83.6686485 L67.0147004,83.3639214 L66.8928096,83.302976 L67.1365912,83.7905393 Z M88.0408655,59.4123768 L87.7970839,59.5342676 L88.0408655,59.6561585 L88.0408655,59.4123768 Z M87.0047936,58.0715779 L86.761012,57.9496871 L86.8219574,58.0715779 L86.9438482,58.1934687 L87.065739,58.1934687 L87.0047936,58.0715779 Z M61.3467776,66.5429893 L61.2858322,66.4210985 L61.1639414,66.5429893 L61.3467776,66.7258256 L61.3467776,66.5429893 Z M87.4923569,64.4099001 L87.4314115,64.2270639 L87.370466,64.1661185 L87.370466,64.4099001 L87.4314115,64.5317909 L87.4923569,64.4099001 Z M72.7435686,62.0939747 L72.6216778,61.9111385 L72.499787,62.1549201 L72.7435686,62.0939747 Z M91.7585353,94.0903129 L91.6975899,94.0293675 L91.5147537,94.0293675 L91.4538083,94.0903129 L91.6366445,94.1512583 L91.7585353,94.0903129 Z M45.0743542,74.9534554 L44.891518,75.0144008 L45.0743542,75.0144008 L45.196245,74.9534554 L45.3790812,74.89251 L45.4400266,74.7706192 L45.3790812,74.8315646 L45.0743542,74.9534554 Z M63.6017577,82.9373036 L63.5408123,83.1810852 L63.7845939,82.9373036 L63.6017577,82.9373036 Z M56.7149268,57.1573968 L56.9587084,57.1573968 L57.0196538,57.2792876 L57.0196538,57.1573968 L56.8368176,57.035506 L56.7149268,57.1573968 Z M58.9089614,67.3352796 L58.6651798,67.3352796 L58.7870706,67.5181158 L58.9089614,67.3352796 Z M52.3268575,95.5530027 L52.1440213,95.7967843 L52.1440213,95.9186751 L52.3268575,95.6748935 L52.3268575,95.5530027 Z M63.2360852,68.0666245 L63.1751398,67.8837883 L63.053249,67.9447337 L63.1141944,68.0666245 L63.2360852,68.0666245 Z M62.2609587,74.1611651 L62.0781225,74.2830559 L62.3219041,74.3440013 L62.2609587,74.1611651 Z M65.7957923,70.2606591 L65.8567377,70.0168775 L65.6739015,70.0778229 L65.7957923,70.2606591 Z M63.4189214,81.5965047 L63.4189214,81.6574501 L63.4798668,81.5965047 L63.4798668,81.5355593 L63.6017577,81.5355593 L63.6627031,81.4136684 L63.5408123,81.4136684 L63.4189214,81.5965047 Z M37.4561784,94.2122037 L37.2733422,94.0903129 L37.3342876,94.3340945 L37.4561784,94.2122037 Z M37.7609055,89.5803529 L37.5171238,89.5194075 L37.6390146,89.7022437 L37.7609055,89.5803529 Z M41.7223569,88.3614447 L41.8442477,88.3614447 L41.7833023,88.2395539 L41.600466,88.2395539 L41.7223569,88.3614447 Z M64.8816112,67.0305526 L65.0644474,66.9696072 L64.8206658,66.8477164 L64.8816112,67.0305526 Z M62.2000133,80.743269 L62.0171771,80.8042144 L62.0171771,80.9261052 L62.2000133,80.8042144 L62.2000133,80.743269 Z M58.6651798,64.5317909 L58.7870706,64.5927364 L58.848016,64.3489547 L58.6651798,64.5317909 Z M56.0445273,68.7979694 L55.9226365,68.4322969 L55.8616911,68.4322969 L55.9835819,68.737024 L56.0445273,68.7979694 Z M47.6340613,82.5716312 L47.8168975,82.6325766 L47.8168975,82.4497403 L47.6340613,82.5716312 Z M67.5632091,75.6848003 L67.5632091,75.501964 L67.5022636,75.6238549 L67.3194274,75.7457457 L67.5632091,75.6848003 Z M61.407723,63.8613915 L61.4686684,63.6785553 L61.2858322,63.7395007 L61.407723,63.8613915 Z M82.7995606,58.0715779 L82.7386152,58.0715779 L82.6776698,58.1934687 L82.6776698,58.2544141 L82.7995606,58.1934687 L82.7995606,58.0715779 Z M43.245992,95.9186751 L43.1241012,95.7967843 L43.1241012,96.0405659 L43.245992,95.9186751 Z M65.1253928,76.9037084 L65.0644474,76.5989814 L65.0644474,76.9037084 L65.003502,77.0865446 L65.1253928,76.9037084 Z M83.7746871,60.0218309 L83.9575233,60.1437217 L83.8965779,59.9608855 L83.7746871,60.0218309 Z M41.9051931,88.544281 L41.8442477,88.3614447 L41.8442477,88.544281 L41.9051931,88.7880626 L41.9051931,88.544281 Z M88.2846471,62.3377563 L88.2846471,62.3987017 L88.4674834,62.2768109 L88.4065379,62.2158655 L88.2846471,62.3377563 Z M96.4513316,87.0206458 L96.3294407,86.9597004 L96.2684953,87.0206458 L96.3903862,87.0815912 L96.4513316,87.0206458 Z M95.5980959,95.5530027 L95.4762051,95.5530027 L95.5980959,95.6748935 L95.6590413,95.6139481 L95.5980959,95.5530027 Z M59.45747,95.5530027 L59.3965246,95.4920573 L59.3355792,95.6139481 L59.3965246,95.6748935 L59.45747,95.5530027 Z M52.69253,67.396225 L52.5706391,67.3352796 L52.5706391,67.5181158 L52.69253,67.396225 Z M51.351731,86.898755 L51.4736218,87.0206458 L51.4736218,86.8378096 L51.351731,86.898755 Z M48.3044607,89.0318442 L48.4263515,89.0927896 L48.4263515,88.9099534 L48.3044607,89.0318442 Z M63.5408123,87.3863182 L63.6627031,87.2644274 L63.5408123,87.203482 L63.5408123,87.3863182 Z M39.1017044,93.9684221 L38.9798136,94.0903129 L39.1017044,94.1512583 L39.1017044,93.9684221 Z M40.0768309,82.2669041 L40.1987217,82.0840679 L40.1377763,82.0840679 L40.0158855,82.2669041 L40.0768309,82.2669041 Z M83.3480692,55.5118708 L83.5309055,55.5118708 L83.2871238,55.4509254 L83.2261784,55.5728162 L83.3480692,55.5118708 Z M43.1241012,85.3141744 L43.0631558,85.3751198 L43.1241012,85.3751198 L43.245992,85.3141744 L43.3069374,85.1922836 L43.245992,85.253229 L43.1241012,85.3141744 Z M61.2248868,60.7531758 L61.2248868,60.8750666 L61.407723,60.6922304 L61.2248868,60.7531758 Z M96.6951132,94.4559854 L96.5732224,94.5778762 L96.6951132,94.6388216 L96.6951132,94.4559854 Z M44.8305726,87.8129361 L45.0134088,88.1176631 L45.0134088,88.0567177 L44.8305726,87.7519907 L44.8305726,87.8129361 Z M89.5645007,95.309221 L89.5035553,95.3701664 L89.5645007,95.4311119 L89.6863915,95.3701664 L89.5645007,95.309221 Z M45.7447537,85.7407923 L45.8666445,85.6798469 L46.0494807,85.6798469 L45.8666445,85.6189015 L45.7447537,85.7407923 Z M45.3790812,92.749514 L45.500972,92.6276232 L45.3790812,92.6885686 L45.196245,92.749514 L45.3790812,92.749514 Z M85.420213,90.8602064 L85.2983222,90.9211518 L85.3592676,91.0430426 L85.420213,90.8602064 Z M64.8816112,68.2494607 L64.698775,68.3104061 L64.8206658,68.3713515 L64.8816112,68.2494607 Z M63.8455393,73.5517111 L63.7236485,73.6126565 L63.9064847,73.6736019 L63.8455393,73.5517111 Z M62.3828495,87.4472636 L62.3828495,87.3253728 L62.2609587,87.5082091 L62.3828495,87.4472636 Z M44.7696272,74.89251 L44.8305726,75.0144008 L44.8305726,74.7706192 L44.7696272,74.89251 Z M46.1104261,82.6325766 L46.0494807,82.7544674 L46.1104261,82.7544674 L46.1713715,82.5716312 L46.1104261,82.6325766 Z M41.5395206,93.7855859 L41.295739,93.5418043 L41.3566844,93.6636951 L41.5395206,93.7855859 Z M92.3070439,85.8626831 L92.4289348,86.2893009 L92.4898802,86.4721372 L92.4289348,86.2283555 L92.3070439,85.8626831 Z M89.015992,63.0081558 L89.1988282,62.8253196 L89.0769374,62.886265 L89.015992,63.0081558 Z M58.9089614,79.3415246 L58.848016,79.3415246 L58.7261252,79.4634154 L58.848016,79.40247 L58.9089614,79.3415246 Z M60.798269,80.1338149 L60.6763782,80.1947603 L60.5544874,80.3166511 L60.798269,80.1338149 Z M137.772317,86.7768642 L137.833262,87.5082091 L137.833262,91.8353329 L137.772317,92.5666778 L137.772317,93.9074767 L137.711372,95.004494 L137.589481,96.0405659 L137.223808,96.65002 L136.370573,97.1375832 L135.273555,97.3813648 L134.603156,97.3813648 L132.043449,97.3204194 L119.793422,97.3204194 L119.062077,97.1985286 L118.269787,96.5890746 L117.782224,95.7358389 L117.660333,95.004494 L117.660333,60.0218309 L117.599387,59.3514314 L117.599387,57.9496871 L117.660333,57.1573968 L117.904115,56.1213249 L118.391678,55.2071438 L119.062077,54.8414714 L119.854368,54.7195806 L120.951385,54.6586352 L127.594434,54.6586352 L129.605632,54.7195806 L131.007377,54.7195806 L131.982503,54.6586352 L132.652903,54.6586352 L133.323302,54.9024168 L133.74992,55.0243076 L134.359374,54.780526 L135.21261,54.7195806 L136.126791,54.8414714 L137.101917,55.4509254 L137.772317,56.3651065 L137.833262,57.1573968 L137.833262,58.0106325 L137.772317,59.1685952 L137.772317,86.7768642 Z M129.483742,65.9335353 L129.666578,66.4820439 L129.361851,66.9086618 L129.179015,67.1524434 L130.154141,67.3352796 L130.519814,67.1524434 L130.946431,67.2743342 L131.190213,67.2743342 L131.49494,66.7258256 L131.068322,66.8477164 L130.580759,66.5429893 L129.483742,65.9335353 Z M120.951385,64.5927364 L121.256112,64.5317909 L121.317057,64.2880093 L120.951385,64.2880093 L120.768549,64.3489547 L120.768549,63.7395007 L121.378003,62.9472104 L120.768549,63.190992 L120.402876,63.7395007 L119.976258,64.2270639 L120.098149,64.4708455 L120.707603,64.4099001 L120.524767,64.5927364 L120.646658,64.9584088 L120.951385,64.5927364 Z M124.364328,59.9608855 L123.511092,59.9608855 L123.26731,60.0827763 L123.815819,60.3265579 L123.693928,60.3875033 L123.693928,60.5093941 L123.815819,60.5703395 L123.754874,60.7531758 L123.93771,60.7531758 L123.876764,60.5093941 L123.815819,60.4484487 L123.815819,60.3265579 L124.547164,60.4484487 L125.217563,60.0827763 L124.364328,59.9608855 Z M125.766072,69.1026964 L125.278509,69.2245872 L124.73,69.1636418 L124.120546,68.7979694 L123.93771,69.1026964 L123.876764,69.1636418 L124.059601,69.2855326 L124.486218,69.4074234 L125.095672,69.5293142 L125.52229,69.4074234 L125.766072,69.1026964 Z M129.118069,68.6151332 L129.23996,68.8589148 L129.300905,67.8837883 L128.752397,68.0666245 L129.118069,68.6151332 Z M125.156618,66.1773169 L124.790945,65.8116445 L124.547164,65.9335353 L124.425273,65.8725899 L124.364328,65.8725899 L124.486218,66.2382623 L125.156618,66.1773169 Z M123.876764,66.3601531 L124.364328,65.8725899 L124.059601,65.8116445 L123.93771,65.7506991 L123.876764,65.6897537 L123.754874,66.2382623 L123.876764,66.3601531 Z M123.815819,72.0280759 L124.303382,71.8452397 L124.181491,71.4795672 L123.876764,71.6014581 L123.815819,72.0280759 Z M126.253635,70.0778229 L126.680253,69.9559321 L126.558362,69.7121505 L126.070799,69.7730959 L126.253635,70.0778229 Z M128.386724,64.4708455 L127.716325,64.8974634 L127.960107,65.141245 L128.386724,64.4708455 Z M123.389201,70.992004 L123.632983,70.8091678 L123.511092,70.5653862 L123.389201,70.4434953 L123.26731,70.2606591 L123.145419,70.3216045 L123.328256,70.3825499 L123.328256,70.4434953 L123.389201,70.5044407 L123.328256,70.687277 L123.389201,70.992004 Z M122.962583,72.3328029 L122.596911,72.3937483 L122.718802,72.63753 L122.962583,72.7594208 L122.962583,72.3328029 Z M123.572037,68.2494607 L123.754874,68.2494607 L124.242437,68.1275699 L124.120546,67.8837883 L123.572037,68.2494607 Z M127.228762,61.0579028 L127.411598,61.240739 L127.899161,60.7531758 L127.77727,60.8141212 L127.228762,61.0579028 Z M122.353129,64.7755726 L122.292184,64.836518 L122.414075,64.8974634 L122.718802,65.2021904 L122.901638,65.0193542 L122.353129,64.7755726 Z M122.353129,68.1885153 L122.657856,68.0666245 L122.414075,67.6400067 L122.353129,68.1885153 Z M129.727523,77.7569441 L129.179015,77.6959987 L129.300905,78.0007257 L129.727523,77.7569441 Z M134.907883,64.7755726 L134.907883,64.8974634 L134.968828,64.836518 L134.968828,64.7146272 L134.907883,64.4708455 L134.664101,64.5927364 L134.725047,64.7755726 L134.907883,64.7755726 Z M130.824541,69.2245872 L130.824541,68.7979694 L130.641704,69.1026964 L130.763595,69.2855326 L130.641704,69.5293142 L130.763595,69.5293142 L130.824541,69.2245872 Z M124.242437,81.5965047 L124.181491,81.1698868 L123.93771,81.5355593 L124.242437,81.5965047 Z M126.375526,78.4882889 L126.009854,78.5492344 L126.19269,78.8539614 L126.375526,78.4882889 Z M128.996178,63.495719 L128.996178,63.9223369 L129.23996,63.7395007 L129.23996,63.6785553 L128.996178,63.495719 Z M126.619308,63.1300466 L126.314581,63.190992 L126.253635,63.1300466 L126.253635,63.0081558 L126.19269,63.0081558 L126.19269,63.190992 L126.497417,63.3738282 L126.619308,63.1300466 Z M121.804621,72.1499667 L121.317057,71.9671305 L121.499893,72.2718575 L121.804621,72.1499667 Z M133.932756,78.4882889 L133.688975,78.6101798 L134.176538,78.793016 L133.932756,78.4882889 Z M131.49494,69.4683688 L131.433995,69.7121505 L131.373049,69.8340413 L131.190213,70.0778229 L131.677776,69.5902597 L131.49494,69.4683688 Z M131.49494,76.9646538 L131.190213,76.9646538 L131.251158,77.14749 L131.373049,77.2084354 L131.49494,76.9646538 Z M134.42032,63.495719 L134.054647,63.495719 L134.115593,63.7395007 L134.42032,63.495719 Z M127.716325,77.8788349 L128.021052,77.9397803 L127.960107,77.6350533 L127.716325,77.8788349 Z M125.217563,71.8452397 L124.912836,72.0280759 L125.095672,72.2109121 L125.217563,71.8452397 Z M127.77727,68.3713515 L128.021052,68.5541877 L128.021052,68.1885153 L127.77727,68.3713515 Z M119.610586,92.8714048 L119.305859,92.8104594 L119.42775,93.1151864 L119.610586,92.8714048 Z M126.680253,70.3216045 L126.680253,69.9559321 L126.558362,70.0778229 L126.497417,70.2606591 L126.680253,70.3216045 Z M127.289707,63.6176099 L126.98498,63.5566644 L126.98498,63.8613915 L127.045925,63.7395007 L127.289707,63.6176099 Z M135.090719,66.4210985 L135.029774,66.1773169 L134.785992,66.3601531 L135.090719,66.4210985 Z M119.915313,91.9572237 L120.159095,91.7134421 L120.098149,91.6524967 L119.793422,91.9572237 L119.915313,91.9572237 Z M133.201411,79.5243609 L133.079521,79.3415246 L133.018575,79.3415246 L133.018575,79.5853063 L133.201411,79.5243609 Z M130.154141,72.3328029 L129.91036,72.3937483 L130.154141,72.5156391 L130.154141,72.3328029 Z M128.996178,58.1934687 L129.23996,58.1325233 L129.118069,58.0106325 L128.996178,58.1934687 Z M122.779747,66.6648802 L122.962583,66.5429893 L122.779747,66.4820439 L122.779747,66.6648802 Z M119.305859,68.9808056 L119.488695,69.041751 L119.488695,68.8589148 L119.305859,68.9808056 Z M123.693928,69.346478 L123.876764,69.1636418 L123.693928,69.1636418 L123.693928,69.346478 Z M125.948908,64.836518 L126.19269,65.0193542 L126.19269,64.8974634 L125.948908,64.836518 Z M127.350652,79.4634154 L127.167816,79.40247 L127.228762,79.5853063 L127.350652,79.4634154 Z M128.508615,60.631285 L128.203888,60.6922304 L128.569561,60.6922304 L128.752397,60.7531758 L128.508615,60.631285 Z M126.19269,59.8999401 L126.19269,60.0827763 L126.314581,60.0218309 L126.19269,59.8999401 Z M119.123023,60.0827763 L119.305859,60.2656125 L119.305859,60.1437217 L119.123023,60.0827763 Z M126.680253,73.8564381 L126.619308,73.8564381 L126.436471,73.9173835 L126.497417,73.9783289 L126.680253,73.8564381 Z M120.829494,62.1549201 L120.707603,62.2158655 L120.829494,62.3377563 L120.829494,62.1549201 Z M128.691451,56.4869973 L128.691451,56.6088881 L128.813342,56.6698336 L128.691451,56.4869973 Z M126.375526,71.3576764 L126.436471,71.3576764 L126.375526,71.2357856 L126.314581,71.4795672 L126.375526,71.3576764 Z M131.129268,59.4733222 L131.190213,59.4733222 L130.946431,59.290486 L131.129268,59.4733222 Z M132.348176,62.5205925 L132.409121,62.3377563 L132.28723,62.5205925 L132.348176,62.5205925 Z M120.280985,72.4546937 L120.098149,72.3328029 L120.098149,72.3937483 L120.280985,72.4546937 Z M125.339454,67.0305526 L125.217563,67.091498 L125.156618,67.1524434 L125.278509,67.091498 L125.339454,67.0305526 Z M128.203888,60.6922304 L127.899161,60.7531758 L127.960107,60.7531758 L128.203888,60.6922304 Z M157.640519,82.3278495 L156.97012,82.1450133 L156.116884,81.5965047 L155.50743,80.6823236 L155.324594,79.9509787 L155.324594,79.097743 L155.446485,78.0007257 L155.446485,76.9646538 L155.50743,75.8676365 L155.629321,74.4658921 L155.690266,73.0641478 L155.568375,71.9671305 L155.50743,70.992004 L155.446485,69.9559321 L155.446485,67.8837883 L155.568375,65.6897537 L155.568375,64.1051731 L155.50743,63.3738282 L155.50743,62.2158655 L155.446485,61.0579028 L155.446485,58.6200866 L155.50743,57.4621238 L155.629321,56.3041611 L155.812157,55.6337617 L156.238775,55.085253 L157.213901,54.7195806 L158.615646,54.6586352 L163.552224,54.6586352 L166.050985,54.5976897 L166.843276,54.9633622 L167.269893,55.5118708 L167.330839,55.4509254 L167.879348,54.8414714 L168.793529,54.6586352 L172.267417,54.6586352 L173.425379,54.780526 L173.912943,54.8414714 L174.339561,54.9633622 L175.00996,55.38998 L175.314687,55.9384887 L175.558469,56.6698336 L175.619414,57.340233 L175.619414,59.7780493 L175.558469,60.8750666 L175.558469,61.6064115 L175.497523,62.3377563 L175.497523,63.3738282 L175.558469,64.4099001 L175.558469,65.3240812 L175.497523,66.2382623 L175.558469,67.2133888 L175.497523,68.5541877 L175.558469,69.5902597 L175.558469,70.7482224 L175.619414,71.7842943 L175.497523,73.246984 L175.619414,74.0392743 L175.68036,74.8315646 L175.68036,75.5629095 L175.619414,76.7818176 L175.619414,79.5243609 L175.314687,80.6823236 L174.827124,81.7183955 L173.730107,82.1450133 L172.633089,82.3278495 L171.840799,82.3887949 L169.098256,82.3278495 L157.640519,82.3278495 Z M190.368202,95.1263848 L190.246312,95.9186751 L189.636858,96.7109654 L188.844567,97.259474 L188.174168,97.3204194 L187.442823,97.3204194 L186.772423,97.259474 L185.614461,97.1985286 L181.957736,97.1985286 L176.716431,97.3204194 L157.335792,97.3204194 L156.665393,97.1375832 L155.934048,96.3452929 L155.50743,95.2482756 L155.50743,94.3950399 L155.568375,94.0293675 L155.446485,93.6636951 L155.446485,89.5803529 L155.324594,88.544281 L155.324594,87.8129361 L155.446485,87.0815912 L155.50743,86.4111917 L155.812157,85.4360652 L156.360666,84.643775 L157.274847,84.3999933 L158.310919,84.2781025 L186.406751,84.2781025 L187.686605,84.3390479 L188.844567,84.643775 L189.149294,84.8266112 L189.454021,84.8266112 L190.00253,85.3751198 L190.246312,86.5330826 L190.368202,88.1176631 L190.368202,95.1263848 Z M163.613169,64.836518 L163.247497,64.8974634 L163.552224,65.141245 L163.917896,65.6288083 L163.796005,65.9335353 L164.100732,65.9944807 L164.466405,65.8725899 L164.344514,65.3240812 L163.613169,64.836518 Z M159.712663,92.5057324 L159.468881,92.444787 L158.676591,92.3838415 L158.310919,92.6885686 L158.615646,93.1151864 L158.859427,92.8714048 L159.286045,92.5057324 L159.712663,92.5057324 Z M161.053462,62.2768109 L161.175353,62.886265 L161.358189,63.0691012 L161.48008,63.0691012 L161.419134,63.0081558 L161.297244,62.7643742 L161.48008,62.2768109 L161.662916,62.1549201 L161.419134,61.9111385 L161.053462,62.2768109 Z M162.394261,70.5653862 L162.211425,70.5044407 L161.906698,70.1387683 L161.358189,69.5902597 L160.931571,69.5902597 L161.175353,69.7730959 L161.662916,70.0778229 L161.906698,70.4434953 L162.150479,70.6263316 L162.394261,70.5653862 Z M166.050985,58.985759 L166.233822,59.1076498 L166.416658,58.8029228 L166.721385,58.6200866 L167.087057,58.4981957 L166.843276,58.3763049 L166.538549,58.4981957 L166.416658,58.6200866 L166.172876,58.8029228 L166.050985,58.985759 Z M162.333316,67.091498 L162.577097,67.4571704 L162.759933,67.6400067 L162.759933,67.7618975 L162.94277,67.4571704 L162.577097,67.0305526 L162.333316,67.091498 Z M164.832077,87.5691545 L164.52735,87.2644274 L164.344514,87.3253728 L164.52735,87.8129361 L164.649241,87.8738815 L164.832077,87.5691545 Z M183.847044,89.7022437 L183.603262,89.6412983 L183.298535,89.3975166 L183.054754,89.2146804 L183.054754,89.5194075 L183.298535,89.7022437 L183.603262,89.7631891 L183.847044,89.7022437 Z M188.357004,87.6910453 L188.53984,87.3863182 L188.844567,87.203482 L188.661731,87.203482 L188.357004,87.2644274 L188.296059,87.3863182 L188.235113,87.5691545 L188.174168,87.8129361 L188.235113,87.8738815 L188.357004,87.6910453 Z M166.477603,63.5566644 L166.660439,63.190992 L166.538549,63.0081558 L166.233822,63.2519374 L166.355712,63.5566644 L166.477603,63.5566644 Z M156.543502,68.4932423 L156.665393,68.1275699 L156.665393,67.7009521 L156.604447,67.7618975 L156.482557,67.9447337 L156.360666,68.3713515 L156.543502,68.4932423 Z M174.339561,78.3663981 L174.156724,78.3663981 L174.034834,78.1835619 L173.973888,78.1226165 L174.095779,78.4882889 L174.522397,78.6711252 L174.583342,78.4882889 L174.583342,78.3054527 L174.522397,78.3054527 L174.339561,78.3663981 Z M159.468881,63.6176099 L159.346991,63.8004461 L159.529827,63.7395007 L159.895499,63.6785553 L160.139281,63.5566644 L159.895499,63.4347736 L159.468881,63.6176099 Z M158.493755,73.6126565 L158.189028,73.3688748 L158.006192,73.6126565 L158.310919,73.8564381 L158.493755,73.6126565 Z M160.68779,77.5131625 L161.053462,77.14749 L160.80968,77.0865446 L160.444008,77.452217 L160.68779,77.5131625 Z M158.859427,70.8701132 L159.103209,71.0529494 L159.286045,71.1138948 L159.103209,70.7482224 L158.798482,70.5653862 L158.859427,70.8701132 Z M162.516152,57.2183422 L162.638043,57.4011784 L162.820879,57.4621238 L163.186551,57.5230692 L163.552224,57.7059055 L163.369387,57.5230692 L162.881824,57.340233 L162.638043,57.2183422 L162.516152,57.2183422 Z M156.665393,65.7506991 L156.543502,65.9335353 L156.787284,66.1773169 L157.092011,66.1773169 L156.665393,65.7506991 Z M158.676591,56.2432157 L159.042264,56.1822703 L159.407936,56.0603795 L159.103209,55.9994341 L158.798482,56.0603795 L158.676591,56.2432157 Z M158.128083,71.6624035 L157.884301,71.8452397 L157.518628,71.9671305 L157.579574,72.0280759 L157.945246,71.9061851 L158.249973,71.7842943 L158.249973,71.6014581 L158.128083,71.6624035 Z M160.078336,91.103988 L159.712663,90.8602064 L159.529827,90.9820972 L159.895499,91.1649334 L160.078336,91.103988 Z M170.439055,61.4845206 L170.5,61.6673569 L170.621891,61.7283023 L170.743782,61.6064115 L170.621891,61.3626298 L170.439055,61.4845206 Z M156.787284,74.6487284 L156.97012,74.7096738 L157.152956,74.5268375 L156.97012,74.4049467 L156.787284,74.6487284 Z M159.164154,89.5803529 L159.468881,89.7022437 L159.407936,89.3365712 L159.164154,89.5803529 Z M160.80968,93.9684221 L161.114407,93.9684221 L160.992517,93.7855859 L160.748735,93.7855859 L160.80968,93.9684221 Z M159.773609,72.63753 L159.407936,72.8203662 L159.407936,72.8813116 L159.590772,72.8203662 L159.895499,72.7594208 L159.773609,72.63753 Z M160.565899,88.9708988 L160.748735,89.2756258 L160.748735,89.4584621 L160.80968,89.4584621 L160.748735,89.0927896 L160.565899,88.7880626 L160.565899,88.9708988 Z M173.425379,63.3738282 L173.059707,63.495719 L173.120652,63.3738282 L173.059707,63.190992 L172.937816,63.3738282 L173.059707,63.495719 L173.242543,63.495719 L173.425379,63.3738282 Z M157.76241,68.9808056 L157.701465,69.1026964 L157.884301,69.2245872 L158.006192,69.1026964 L157.76241,68.9808056 Z M173.181598,59.9608855 L173.364434,59.8999401 L173.303489,59.7171039 L173.120652,59.8389947 L173.181598,59.9608855 Z M187.259987,95.9186751 L187.138096,96.0405659 L187.07715,96.2234021 L187.138096,96.3452929 L187.259987,95.9796205 L187.259987,95.9186751 Z M180.31221,87.1425366 L180.434101,87.203482 L180.555992,87.0206458 L180.434101,86.9597004 L180.31221,87.1425366 Z M163.552224,60.8750666 L163.430333,61.0579028 L163.613169,61.240739 L163.552224,60.8750666 Z M158.493755,90.3726431 L158.676591,90.1898069 L158.371864,90.1898069 L158.493755,90.3726431 Z M179.215193,90.1898069 L179.337084,90.0679161 L179.337084,89.8850799 L179.215193,89.9460253 L179.215193,90.1898069 Z M160.01739,75.8676365 L159.895499,75.6238549 L159.895499,75.9895273 L160.01739,75.8676365 Z M170.804727,57.8277963 L170.682836,58.0106325 L170.804727,58.0715779 L170.865672,57.8887417 L170.804727,57.8277963 Z M156.604447,94.2122037 L156.482557,94.2122037 L156.421611,94.3340945 L156.604447,94.3340945 L156.604447,94.2122037 Z M162.150479,94.5169308 L162.150479,94.3950399 L162.089534,94.5778762 L161.906698,94.6388216 L161.967643,94.7607124 L162.150479,94.5169308 Z M176.228868,86.7768642 L176.228868,86.9597004 L176.411704,86.7159188 L176.228868,86.7768642 Z M161.48008,85.8626831 L161.419134,85.9845739 L161.419134,86.1064647 L161.541025,85.9845739 L161.48008,85.8626831 Z M188.113222,93.5418043 L188.235113,93.4199134 L188.174168,93.2980226 L188.113222,93.4199134 L188.113222,93.5418043 Z M161.358189,78.2445073 L161.114407,78.2445073 L161.236298,78.3663981 L161.358189,78.2445073 Z M174.095779,55.6337617 L174.156724,55.7556525 L174.21767,55.6337617 L174.156724,55.5118708 L174.095779,55.6337617 Z M165.624368,60.3265579 L165.685313,60.3265579 L165.807204,60.2046671 L165.746258,60.1437217 L165.746258,60.2046671 L165.624368,60.2656125 L165.624368,60.3265579 Z M164.52735,67.3352796 L164.466405,67.4571704 L164.588296,67.6400067 L164.588296,67.5790613 L164.52735,67.3352796 Z M158.189028,66.786771 L158.310919,66.9086618 L158.310919,66.7258256 L158.189028,66.786771 Z M159.042264,66.4210985 L159.042264,66.2992077 L158.859427,66.4820439 L159.042264,66.4210985 Z M173.303489,60.936012 L173.120652,61.0579028 L173.303489,61.0579028 L173.303489,60.936012 Z M188.722676,96.1015113 L188.600786,96.1015113 L188.478895,96.0405659 L188.478895,96.1015113 L188.600786,96.1624567 L188.722676,96.1015113 Z M163.491278,71.1138948 L163.491278,71.0529494 L163.308442,71.1748402 L163.308442,71.2357856 L163.491278,71.1138948 Z M167.330839,61.6673569 L167.269893,61.8501931 L167.391784,61.6673569 L167.45273,61.4845206 L167.330839,61.6673569 Z M186.589587,92.444787 L186.650533,92.2619507 L186.528642,92.3228961 L186.589587,92.444787 Z M159.529827,73.0641478 L159.590772,73.0032024 L159.407936,72.942257 L159.529827,73.0641478 Z M165.929095,65.5069174 L166.111931,65.5678628 L165.99004,65.445972 L165.929095,65.5069174 Z M166.111931,94.3950399 L166.050985,94.4559854 L166.294767,94.3340945 L166.111931,94.3950399 Z M161.784807,62.2158655 L161.723862,62.2158655 L161.784807,62.2768109 L161.784807,62.2158655 Z M227.727736,88.2395539 L227.788682,89.0318442 L227.605846,90.0679161 L227.605846,91.8962783 L227.483955,92.3228961 L227.5449,92.3838415 L227.666791,92.3228961 L227.666791,92.8104594 L227.423009,93.6636951 L227.118282,94.0903129 L227.179228,94.2731491 L227.423009,94.5169308 L227.605846,94.6388216 L227.666791,94.8216578 L227.666791,94.9435486 L227.483955,94.9435486 L227.423009,95.1263848 L227.483955,95.4920573 L227.483955,95.9186751 L227.240173,96.4062383 L226.996391,96.7719108 L226.691664,97.0766378 L226.386937,97.0156924 L226.143156,96.8938016 L225.533702,97.1375832 L224.192903,97.3204194 L222.913049,97.259474 L222.364541,97.0156924 L222.120759,96.7719108 L222.120759,96.5890746 L222.425486,96.2843475 L222.608322,96.1624567 L222.486431,96.1624567 L222.303595,96.2234021 L221.876977,96.4062383 L221.45036,96.2234021 L221.45036,95.3701664 L221.267523,95.0654394 L221.145632,94.8216578 L220.901851,94.7607124 L220.840905,94.8216578 L221.023742,95.004494 L220.962796,95.309221 L220.719015,95.7967843 L220.840905,96.3452929 L221.267523,96.4671838 L221.633196,96.65002 L221.816032,96.8328562 L222.059814,96.954747 L221.937923,97.1375832 L220.77996,97.3204194 L218.403089,97.3204194 L218.098362,97.0766378 L217.976471,96.954747 L217.549854,97.1375832 L217.123236,97.259474 L217.184181,97.3204194 L213.588402,97.3204194 L212.125712,97.3813648 L211.028695,97.4423103 L210.29735,97.3813648 L209.200333,97.1985286 L208.225206,96.65002 L207.920479,95.9186751 L207.737643,94.8216578 L207.737643,93.7246405 L207.798589,92.8714048 L207.920479,92.1400599 L208.286152,91.7743875 L208.103316,91.8962783 L207.981425,91.9572237 L207.798589,91.7134421 L207.676698,91.103988 L207.737643,90.0679161 L207.737643,57.7668509 L207.798589,56.6088881 L208.04237,55.8165979 L208.590879,55.2680892 L208.956551,55.085253 L209.383169,54.9024168 L210.480186,54.7195806 L214.929201,54.7195806 L216.087164,54.9024168 L217.488908,54.9024168 L219.682943,54.7195806 L220.840905,54.780526 L221.998868,54.780526 L223.03494,54.7195806 L223.766285,54.6586352 L225.168029,54.6586352 L225.899374,54.780526 L226.569774,55.0243076 L227.240173,55.7556525 L227.666791,56.6698336 L227.788682,57.340233 L227.788682,58.3763049 L227.727736,59.4123768 L227.788682,63.6176099 L227.849627,65.6897537 L227.849627,68.9198602 L227.788682,70.4434953 L227.727736,71.6624035 L227.788682,72.4546937 L227.788682,73.6736019 L227.849627,75.197237 L227.849627,85.6798469 L227.727736,86.5330826 L227.666791,87.3863182 L227.727736,88.2395539 Z M248.571065,94.3340945 L248.51012,95.3701664 L248.388229,96.0405659 L247.71783,96.7719108 L246.803648,97.3204194 L246.072304,97.3813648 L244.914341,97.3813648 L242.903142,97.3204194 L241.74518,97.1985286 L240.891944,97.1985286 L239.855872,97.3204194 L238.210346,97.3204194 L237.539947,97.259474 L237.23522,97.1985286 L237.296165,97.0766378 L237.174274,96.954747 L237.113329,96.7719108 L237.113329,96.4062383 L237.23522,96.2843475 L237.357111,96.1015113 L236.991438,96.1015113 L236.442929,96.2234021 L236.260093,95.9796205 L236.260093,95.7358389 L235.894421,95.2482756 L235.711585,95.2482756 L235.955366,95.7358389 L236.077257,96.1624567 L236.077257,96.2843475 L236.016312,96.3452929 L236.321039,96.3452929 L236.56482,96.65002 L236.686711,96.8328562 L236.869547,96.8938016 L237.052383,96.8938016 L237.174274,97.0156924 L237.174274,97.1375832 L236.869547,97.3204194 L236.260093,97.259474 L235.833475,97.1375832 L235.77253,97.0766378 L235.589694,97.0156924 L235.528748,97.0766378 L235.284967,97.259474 L234.370786,97.3204194 L233.395659,97.0766378 L232.603369,97.0156924 L231.384461,97.0766378 L230.409334,96.7109654 L229.982716,96.1624567 L229.677989,95.2482756 L229.921771,94.2731491 L230.409334,93.6636951 L230.287443,93.4808589 L229.860826,93.358968 L229.860826,92.2619507 L230.226498,91.8962783 L230.348389,91.8353329 L230.043662,91.8353329 L229.738935,91.2868242 L229.79988,90.3726431 L229.79988,89.4584621 L229.677989,88.3004993 L229.677989,78.4273435 L229.79988,77.6959987 L230.104607,76.9646538 L230.653116,76.5989814 L231.018788,76.6599268 L231.079734,76.7208722 L231.079734,76.4161451 L231.201625,76.1723635 L231.872024,76.0504727 L233.029987,75.9895273 L236.56482,75.9895273 L238.758855,76.0504727 L239.916818,76.1114181 L240.709108,76.1723635 L241.501398,76.2942543 L242.659361,76.538036 L243.695433,76.842763 L244.670559,77.3303262 L245.889467,78.1835619 L246.681758,79.0367976 L247.230266,80.0119241 L247.656884,81.047996 L247.83972,81.7793409 L248.022557,82.8154128 L248.327284,84.643775 L248.388229,85.3141744 L248.449174,86.0455193 L248.449174,86.7768642 L248.51012,87.4472636 L248.51012,89.5803529 L248.571065,90.6773702 L248.571065,94.3340945 Z M229.677989,70.8701132 L229.677989,68.6760786 L229.617044,67.5181158 L229.617044,64.8974634 L229.677989,64.1661185 L229.677989,63.0691012 L229.738935,61.9720839 L229.860826,61.0579028 L230.043662,60.1437217 L230.287443,59.7171039 L230.287443,59.5342676 L230.226498,59.290486 L230.47028,59.1076498 L230.409334,58.7419774 L230.59217,58.1325233 L231.018788,57.4621238 L231.811079,56.6088881 L232.664314,55.8775433 L233.395659,55.5118708 L234.127004,55.3290346 L234.797403,55.2071438 L235.711585,54.9633622 L237.23522,54.8414714 L238.332237,54.780526 L239.307364,54.780526 L240.160599,54.9024168 L240.648162,54.9633622 L241.07478,54.9633622 L241.318562,55.0243076 L241.562344,55.0243076 L241.988961,55.1461984 L242.415579,55.0243076 L242.781252,55.0243076 L242.842197,55.3290346 L242.598415,55.4509254 L242.720306,55.5118708 L243.32976,55.2071438 L244.00016,54.9633622 L244.426778,55.0243076 L244.914341,54.8414714 L245.889467,54.9024168 L246.742703,55.1461984 L247.108375,55.5728162 L247.169321,55.8165979 L247.413103,56.0603795 L247.595939,56.6088881 L247.656884,57.2183422 L247.83972,57.8887417 L247.900666,58.5591411 L247.900666,60.6922304 L247.83972,61.4235752 L247.778775,62.5205925 L247.291212,63.190992 L246.742703,63.3128828 L246.864594,63.5566644 L247.413103,63.8004461 L247.71783,64.4708455 L247.778775,65.2631358 L247.71783,66.4820439 L247.534993,67.8837883 L247.291212,68.7979694 L246.986485,69.7121505 L246.498921,70.9310586 L245.828522,71.9671305 L244.914341,72.63753 L243.756378,73.246984 L243.025033,73.4907656 L241.440453,73.8564381 L239.855872,73.9783289 L239.4902,73.7345473 L239.307364,73.5517111 L238.941691,73.7954927 L238.271292,74.0392743 L237.479001,74.0392743 L233.395659,74.1611651 L232.603369,74.1002197 L231.872024,73.9783289 L231.445406,73.8564381 L231.140679,73.7954927 L230.348389,73.3079294 L229.738935,72.0280759 L229.677989,70.8701132 Z M224.863302,95.8577297 L224.802357,94.9435486 L224.802357,94.5778762 L224.741411,94.699767 L224.49763,95.1263848 L224.375739,95.8577297 L224.619521,96.5281292 L224.558575,96.7719108 L223.949121,96.7109654 L223.583449,96.8328562 L224.071012,96.954747 L224.619521,96.8938016 L224.863302,96.5890746 L224.863302,95.8577297 Z M231.689188,93.4199134 L232.359587,93.6027497 L232.542423,93.7855859 L232.481478,93.9074767 L232.542423,93.9074767 L232.664314,93.7855859 L232.72526,93.6636951 L232.542423,93.4199134 L232.359587,93.1151864 L232.237696,92.8104594 L231.932969,92.9323502 L231.567297,92.9323502 L231.140679,92.8104594 L230.835952,92.8104594 L231.201625,93.1151864 L231.689188,93.4199134 Z M232.603369,96.4671838 L232.603369,96.3452929 L232.359587,95.9186751 L232.115806,95.7967843 L231.811079,96.0405659 L231.689188,96.3452929 L232.115806,96.5890746 L232.542423,96.5890746 L232.603369,96.4671838 Z M219.865779,93.9074767 L220.170506,93.6636951 L220.292397,93.2370772 L219.98767,93.4199134 L219.621997,93.7246405 L219.195379,93.7246405 L218.707816,93.6636951 L218.464035,93.9074767 L218.52498,94.0293675 L218.890652,93.9074767 L219.195379,93.9074767 L219.31727,93.8465313 L219.500107,93.8465313 L219.865779,93.9074767 Z M233.822277,94.8826032 L233.151877,94.6388216 L232.603369,94.4559854 L232.298642,94.5778762 L232.603369,94.5778762 L233.090932,94.7607124 L233.578495,95.2482756 L233.883222,95.0654394 L233.822277,94.8826032 Z M220.048615,95.2482756 L219.804834,95.004494 L219.743888,95.1263848 L219.743888,95.2482756 L219.682943,95.309221 L219.561052,95.0654394 L219.561052,94.8216578 L219.439161,94.8216578 L219.378216,95.1873302 L219.256325,95.4311119 L219.073489,95.6139481 L219.195379,95.6139481 L219.804834,95.4920573 L220.048615,95.2482756 Z M237.052383,94.1512583 L237.174274,93.7246405 L236.991438,93.7246405 L236.442929,94.2731491 L236.442929,94.4559854 L236.56482,94.5169308 L237.052383,94.1512583 Z M226.630719,94.5778762 L226.265047,94.0293675 L226.08221,93.7855859 L226.08221,93.7246405 L226.021265,93.7246405 L225.96032,94.2122037 L226.447883,94.699767 L226.630719,94.5778762 Z M219.561052,96.65002 L219.195379,96.4062383 L218.890652,96.4671838 L218.829707,96.7719108 L219.31727,96.8938016 L219.561052,96.65002 Z M235.894421,93.7246405 L235.650639,93.6027497 L235.10213,93.6027497 L234.919294,93.7246405 L235.467803,93.9074767 L235.833475,93.9074767 L235.894421,93.7246405 Z M224.985193,88.9099534 L224.619521,89.0927896 L224.436684,89.2146804 L224.619521,89.3365712 L225.046138,89.2756258 L225.228975,89.0318442 L224.985193,88.9099534 Z M239.4902,91.8353329 L239.4902,91.7134421 L239.246418,91.5915513 L239.063582,91.4696605 L238.758855,91.1649334 L238.515073,91.3477696 L239.002636,91.6524967 L239.429254,91.7743875 L239.4902,91.8353329 Z M244.426778,57.4011784 L244.914341,57.6449601 L245.036232,57.4621238 L244.670559,57.2183422 L244.548668,57.035506 L244.426778,56.9745606 L244.426778,57.4011784 Z M222.547377,90.0069707 L222.364541,89.8241345 L221.937923,89.9460253 L221.755087,90.2507523 L221.755087,90.4335885 L221.998868,90.6773702 L222.059814,90.6164248 L221.816032,90.4335885 L221.816032,90.2507523 L222.120759,90.1288615 L222.547377,90.0069707 Z M238.880746,92.6885686 L238.576019,92.5666778 L238.576019,92.8714048 L238.941691,93.1761318 L239.124527,93.054241 L238.880746,92.6885686 Z M226.021265,90.0069707 L226.265047,89.5194075 L226.325992,89.2756258 L226.08221,89.4584621 L226.021265,89.5194075 L226.021265,89.5803529 L225.838429,89.7631891 L225.777483,90.0069707 L226.021265,90.0069707 Z M233.334714,84.2781025 L232.72526,84.3390479 L232.542423,84.5218842 L232.969041,84.5828296 L233.456605,84.3390479 L233.334714,84.2781025 Z M217.671744,88.849008 L217.427963,88.7271172 L217.001345,88.7880626 L217.123236,89.0318442 L217.610799,88.9708988 L217.793635,88.7880626 L217.671744,88.849008 Z M224.558575,82.9373036 L224.192903,82.8154128 L224.131957,82.9373036 L224.314794,83.2420306 L224.619521,83.1810852 L224.558575,82.9373036 Z M221.389414,83.7295939 L221.511305,83.7295939 L221.633196,83.6686485 L221.816032,83.4858123 L221.633196,83.3639214 L221.511305,83.2420306 L221.389414,83.4858123 L221.389414,83.7295939 Z M210.053569,92.9323502 L209.687896,93.054241 L209.687896,93.2980226 L209.931678,93.2980226 L210.175459,92.9932956 L210.053569,92.9323502 Z M225.350866,84.8266112 L225.28992,84.5828296 L225.228975,84.2781025 L224.985193,84.4609387 L225.107084,84.7656658 L225.228975,84.8266112 L225.350866,84.8266112 Z M218.403089,95.3701664 L218.403089,95.309221 L217.976471,95.2482756 L217.610799,95.3701664 L217.610799,95.4920573 L217.976471,95.4311119 L218.403089,95.3701664 Z M223.156831,95.1873302 L223.522503,95.1873302 L223.82723,95.2482756 L223.888176,95.0654394 L223.583449,95.1873302 L223.339667,95.0654394 L223.217776,94.8826032 L223.03494,94.9435486 L223.156831,95.1873302 Z M236.625766,72.2718575 L236.503875,72.1499667 L236.199148,71.9671305 L236.016312,71.9671305 L236.260093,72.0890213 L236.199148,72.2718575 L236.138202,72.3328029 L236.381984,72.3328029 L236.625766,72.2718575 Z M242.53747,87.1425366 L242.903142,87.3253728 L242.781252,87.0206458 L242.354634,86.8378096 L242.53747,87.1425366 Z M243.573542,81.4746138 L243.390706,81.5965047 L243.512597,81.6574501 L243.756378,81.5965047 L243.939214,81.5965047 L244.061105,81.6574501 L244.122051,81.5355593 L244.00016,81.4746138 L243.573542,81.4746138 Z M233.761332,57.7668509 L233.578495,57.8887417 L233.334714,58.0106325 L233.456605,58.1325233 L233.700386,58.1325233 L233.761332,57.9496871 L233.761332,57.7668509 Z M233.334714,86.9597004 L233.51755,86.7768642 L233.456605,86.4721372 L233.273768,86.5330826 L233.273768,86.8378096 L233.334714,86.9597004 Z M246.498921,92.2619507 L246.498921,92.444787 L246.437976,92.6276232 L246.437976,92.8104594 L246.559867,92.8104594 L246.620812,92.6885686 L246.620812,92.2010053 L246.498921,92.2619507 Z M216.087164,80.9870506 L216.452836,80.9870506 L216.452836,80.8042144 L216.209055,80.743269 L216.026218,80.8651598 L216.087164,80.9870506 Z M224.314794,92.5057324 L224.619521,92.3838415 L224.253848,92.2619507 L223.949121,92.3838415 L224.314794,92.5057324 Z M235.224021,56.8526698 L235.467803,56.6698336 L235.528748,56.3651065 L235.406858,56.4260519 L235.163076,56.6698336 L235.224021,56.8526698 Z M212.55233,94.9435486 L212.430439,95.1263848 L212.064767,95.6139481 L212.003822,95.7358389 L212.247603,95.4920573 L212.55233,95.2482756 L212.55233,94.9435486 Z M222.24265,91.6524967 L222.425486,91.6524967 L222.24265,91.408715 L221.937923,91.3477696 L221.998868,91.5306059 L222.24265,91.6524967 Z M242.232743,63.4347736 L242.110852,63.495719 L241.867071,63.9223369 L241.867071,64.1051731 L241.928016,64.1051731 L242.049907,63.8613915 L242.232743,63.4347736 Z M234.614567,87.9957723 L234.858349,87.9348269 L234.98024,87.5691545 L234.675513,87.7519907 L234.614567,87.9957723 Z M233.944168,59.5342676 L233.761332,59.4733222 L233.639441,59.4123768 L233.639441,59.4733222 L233.700386,59.595213 L233.700386,59.7780493 L233.944168,59.7171039 L233.944168,59.5342676 Z M241.318562,85.6189015 L241.318562,85.9236285 L241.440453,85.9236285 L241.562344,85.8017377 L241.501398,85.6189015 L241.318562,85.6189015 Z M211.272477,85.0094474 L211.394368,84.8266112 L211.455313,84.5828296 L211.394368,84.5218842 L211.150586,85.0094474 L211.08964,85.0703928 L211.272477,85.0094474 Z M217.06229,95.4920573 L217.06229,95.3701664 L217.001345,95.4920573 L216.757563,95.6748935 L216.635672,95.9796205 L216.818509,95.7967843 L217.001345,95.6748935 L217.06229,95.4920573 Z M219.31727,89.8850799 L219.134434,90.0069707 L218.951598,90.0069707 L218.829707,89.9460253 L218.829707,90.0069707 L219.073489,90.1288615 L219.31727,90.0069707 L219.500107,89.8241345 L219.31727,89.8850799 Z M245.219068,87.9348269 L245.219068,87.8738815 L244.79245,87.8738815 L244.670559,87.8129361 L244.609614,87.8129361 L244.609614,87.8738815 L244.670559,87.9348269 L244.79245,87.9348269 L244.975286,87.9957723 L245.219068,87.9348269 Z M247.71783,93.4199134 L247.413103,93.5418043 L247.413103,93.6636951 L247.778775,93.5418043 L247.900666,93.4199134 L247.71783,93.4199134 Z M211.638149,58.1325233 L211.577204,58.3763049 L211.638149,58.3763049 L211.76004,58.1934687 L211.942876,58.0715779 L211.942876,57.9496871 L211.638149,58.1325233 Z M235.955366,59.2295406 L235.833475,59.0467044 L235.528748,58.8029228 L235.284967,58.8638682 L235.406858,58.9248136 L235.77253,59.0467044 L235.955366,59.2295406 Z M239.4902,89.8850799 L239.4902,89.6412983 L239.246418,89.5194075 L239.246418,89.7022437 L239.4902,89.8850799 Z M240.099654,60.1437217 L239.977763,59.9608855 L239.794927,60.0827763 L239.916818,60.2656125 L240.099654,60.1437217 Z M234.248895,71.7233489 L234.127004,71.6624035 L234.005113,71.6624035 L234.127004,71.7233489 L234.127004,71.8452397 L234.187949,72.0890213 L234.248895,72.2109121 L234.248895,71.7233489 Z M222.852104,92.9323502 L222.669268,92.9323502 L222.364541,93.1151864 L222.608322,93.1151864 L222.791158,93.054241 L222.852104,92.9323502 Z M223.278722,85.9845739 L223.156831,86.0455193 L222.973995,86.2283555 L223.03494,86.3502463 L223.278722,86.1064647 L223.278722,85.9845739 Z M231.628242,91.408715 L231.567297,91.408715 L231.384461,91.5915513 L231.201625,91.7134421 L231.079734,91.8962783 L231.26257,91.8353329 L231.445406,91.5915513 L231.628242,91.408715 Z M225.046138,76.2942543 L225.28992,76.4161451 L225.350866,76.3551997 L225.350866,76.2333089 L225.168029,76.1723635 L225.046138,76.2942543 Z M214.258802,88.9708988 L214.319747,88.9099534 L214.01502,88.6052264 L214.01502,88.7880626 L214.258802,88.9708988 Z M244.182996,59.4123768 L244.548668,59.5342676 L244.670559,59.4733222 L244.426778,59.3514314 L244.182996,59.4123768 Z M226.204101,79.3415246 L226.265047,79.5243609 L226.325992,79.40247 L226.386937,79.1586884 L226.386937,79.097743 L226.325992,79.097743 L226.204101,79.3415246 Z M242.049907,62.0330293 L241.806125,61.9111385 L241.928016,62.1549201 L242.049907,62.2768109 L242.049907,62.0330293 Z M236.869547,55.7556525 L237.174274,55.7556525 L237.357111,55.6337617 L237.174274,55.6947071 L236.991438,55.6337617 L236.869547,55.6337617 L236.869547,55.7556525 Z M233.334714,71.296731 L233.212823,71.1138948 L233.029987,71.1748402 L233.212823,71.3576764 L233.334714,71.296731 Z M235.894421,88.3004993 L236.138202,88.1786085 L236.260093,88.1786085 L236.138202,88.0567177 L236.016312,88.0567177 L235.894421,88.3004993 Z M232.176751,81.1698868 L232.176751,81.2917776 L232.481478,81.047996 L232.481478,80.9261052 L232.176751,81.1698868 Z M218.403089,92.5666778 L218.585925,92.6276232 L218.646871,92.5057324 L218.646871,92.3838415 L218.464035,92.444787 L218.403089,92.5666778 Z M245.828522,60.631285 L246.011358,60.7531758 L246.133249,60.631285 L245.889467,60.5093941 L245.828522,60.631285 Z M242.476525,58.1325233 L242.53747,58.2544141 L242.720306,58.1934687 L242.964088,58.3763049 L243.025033,58.4372503 L242.781252,58.1325233 L242.476525,58.1325233 Z M241.562344,62.0330293 L241.806125,61.9111385 L241.623289,61.8501931 L241.501398,61.9111385 L241.440453,62.0330293 L241.562344,62.0330293 Z M241.806125,57.8887417 L241.867071,58.1325233 L241.988961,58.0106325 L241.988961,57.8887417 L241.806125,57.8277963 L241.806125,57.8887417 Z M214.990146,91.103988 L214.990146,90.8602064 L214.868256,90.799261 L214.868256,91.0430426 L214.929201,91.1649334 L214.990146,91.103988 Z M223.339667,91.7743875 L223.522503,91.6524967 L223.583449,91.4696605 L223.339667,91.5915513 L223.339667,91.7743875 Z M226.265047,74.0392743 L226.386937,73.9173835 L226.204101,73.7345473 L226.143156,73.8564381 L226.265047,74.0392743 Z M236.991438,77.6350533 L237.174274,77.6350533 L237.357111,77.5741079 L237.479001,77.5131625 L237.418056,77.3912716 L237.296165,77.5131625 L237.174274,77.5741079 L236.991438,77.6350533 Z M235.345912,92.444787 L235.467803,92.444787 L235.589694,92.2619507 L235.345912,92.2619507 L235.345912,92.444787 Z M236.260093,61.6673569 L235.894421,61.545466 L236.138202,61.7283023 L236.381984,61.8501931 L236.260093,61.6673569 Z M223.583449,84.7047204 L223.766285,84.8875566 L223.888176,84.8875566 L223.766285,84.8266112 L223.766285,84.7047204 L223.70534,84.5828296 L223.583449,84.7047204 Z M241.07478,88.6661718 L241.318562,88.544281 L241.135726,88.544281 L240.770053,88.6052264 L241.07478,88.6661718 Z M245.706631,91.6524967 L245.767577,91.5306059 L245.58474,91.3477696 L245.401904,91.2868242 L245.706631,91.5915513 L245.706631,91.6524967 Z M217.367017,94.8826032 L217.549854,94.8216578 L217.427963,94.699767 L217.245126,94.7607124 L217.367017,94.8826032 Z M213.588402,96.5890746 L213.405566,96.4062383 L213.405566,96.5890746 L213.527457,96.7109654 L213.588402,96.5890746 Z M234.919294,94.7607124 L234.98024,94.6388216 L234.736458,94.3950399 L234.736458,94.4559854 L234.919294,94.7607124 Z M244.00016,61.8501931 L243.939214,61.6064115 L243.817324,61.7283023 L243.939214,61.9111385 L244.00016,61.8501931 Z M244.365832,65.7506991 L244.304887,66.0554261 L244.365832,66.1773169 L244.426778,65.9335353 L244.365832,65.7506991 Z M222.791158,78.9758522 L222.730213,79.1586884 L222.852104,79.0367976 L223.03494,78.9149068 L223.03494,78.8539614 L222.791158,78.9758522 Z M233.700386,85.0094474 L233.700386,85.0703928 L233.761332,85.0094474 L233.700386,84.7656658 L233.639441,84.643775 L233.639441,84.8875566 L233.700386,85.0094474 Z M211.333422,68.9808056 L211.150586,68.9198602 L211.211531,69.041751 L211.394368,69.1026964 L211.455313,69.041751 L211.333422,68.9808056 Z M213.954075,93.7855859 L213.893129,93.7246405 L213.710293,93.9074767 L213.771238,93.9684221 L213.954075,93.7855859 Z M237.418056,64.7146272 L237.357111,64.5317909 L237.23522,64.5317909 L237.174274,64.5927364 L237.418056,64.7146272 Z M221.023742,93.7855859 L221.084687,93.5418043 L221.023742,93.4199134 L220.962796,93.6636951 L221.023742,93.7855859 Z M222.059814,94.0903129 L222.059814,93.9684221 L221.998868,93.8465313 L221.876977,93.9074767 L222.059814,94.0903129 Z M213.283675,95.6139481 L213.466511,95.4920573 L213.405566,95.4311119 L213.283675,95.4920573 L213.22273,95.5530027 L213.283675,95.6139481 Z M234.919294,91.5915513 L234.98024,91.5306059 L234.553622,91.103988 L234.736458,91.3477696 L234.919294,91.5306059 L234.919294,91.5915513 Z M233.700386,93.8465313 L233.944168,93.7855859 L233.761332,93.6636951 L233.700386,93.8465313 Z M219.926724,60.3875033 L219.926724,60.4484487 L220.048615,60.5093941 L220.109561,60.3875033 L219.98767,60.3265579 L219.926724,60.3875033 Z M241.318562,89.0318442 L241.135726,88.9099534 L241.196671,89.153735 L241.318562,89.0318442 Z M242.293688,88.4833356 L242.232743,88.544281 L242.415579,88.544281 L242.53747,88.4223901 L242.476525,88.4223901 L242.293688,88.4833356 Z M231.689188,84.0952663 L231.811079,84.1562117 L231.993915,84.0952663 L231.872024,84.0343209 L231.689188,84.0952663 Z M224.010067,87.5691545 L224.010067,87.6910453 L224.131957,87.6300999 L224.314794,87.6300999 L224.192903,87.5691545 L224.010067,87.5691545 Z M216.209055,90.5554794 L216.026218,90.5554794 L215.904328,90.6164248 L216.026218,90.6773702 L216.209055,90.5554794 Z M244.79245,58.5591411 L244.914341,58.4981957 L244.79245,58.4372503 L244.609614,58.4372503 L244.79245,58.5591411 Z M223.82723,93.1151864 L224.010067,93.2370772 L224.010067,93.1151864 L223.82723,93.054241 L223.82723,93.1151864 Z M245.46285,95.3701664 L245.401904,95.4311119 L245.280013,95.7358389 L245.340959,95.7358389 L245.46285,95.3701664 Z M219.743888,78.5492344 L219.621997,78.3663981 L219.500107,78.3663981 L219.621997,78.4882889 L219.743888,78.5492344 Z M239.733981,58.8029228 L239.916818,58.8638682 L239.855872,58.681032 L239.733981,58.8029228 Z M222.973995,83.1810852 L222.730213,83.1201398 L222.730213,83.2420306 L222.973995,83.1810852 Z M239.429254,57.035506 L239.4902,56.8526698 L239.307364,56.9136152 L239.429254,57.035506 Z M211.638149,91.0430426 L211.516258,90.8602064 L211.394368,90.8602064 L211.455313,90.9211518 L211.638149,91.0430426 Z M220.840905,90.494534 L220.658069,90.3726431 L220.719015,90.5554794 L220.840905,90.494534 Z M217.184181,93.2370772 L217.306072,93.1151864 L217.306072,93.054241 L217.123236,93.1761318 L217.184181,93.2370772 Z M237.479001,58.9248136 L237.357111,58.985759 L237.479001,59.1076498 L237.479001,58.9248136 Z M217.245126,92.5057324 L217.427963,92.444787 L217.245126,92.3838415 L217.245126,92.5057324 Z M212.064767,93.5418043 L212.003822,93.4808589 L211.942876,93.6027497 L212.003822,93.6636951 L212.064767,93.5418043 Z M237.600892,56.3651065 L237.661838,56.3041611 L237.600892,56.1822703 L237.539947,56.3041611 L237.600892,56.3651065 Z M237.357111,79.40247 L237.296165,79.3415246 L237.174274,79.40247 L237.174274,79.4634154 L237.357111,79.40247 Z M208.956551,89.6412983 L208.83466,89.7631891 L208.956551,89.7631891 L209.017497,89.6412983 L208.956551,89.6412983 Z M221.45036,88.849008 L221.206578,88.7880626 L221.328469,88.9099534 L221.45036,88.849008 Z M233.639441,90.9211518 L233.761332,91.0430426 L233.761332,90.8602064 L233.639441,90.9211518 Z M220.109561,80.8042144 L220.231451,80.6213782 L220.170506,80.6213782 L220.048615,80.8042144 L220.109561,80.8042144 Z M231.993915,86.3502463 L232.05486,86.2283555 L231.932969,86.2893009 L231.872024,86.4111917 L231.993915,86.3502463 Z M213.100839,92.8714048 L212.918003,92.8714048 L213.039893,92.9932956 L213.100839,92.8714048 Z M234.919294,58.1325233 L235.10213,58.2544141 L235.10213,58.1934687 L234.919294,58.0715779 L234.919294,58.1325233 Z M215.294874,96.1624567 L215.233928,96.2843475 L215.416764,96.2843475 L215.294874,96.1624567 Z M231.26257,86.1064647 L231.079734,86.1674101 L231.201625,86.2283555 L231.26257,86.1064647 Z M246.681758,66.3601531 L246.803648,66.4210985 L246.742703,66.2382623 L246.681758,66.3601531 Z M226.386937,84.3999933 L226.204101,84.4609387 L226.325992,84.5218842 L226.386937,84.3999933 Z M234.187949,78.6101798 L234.370786,78.6101798 L234.492676,78.793016 L234.370786,78.5492344 L234.187949,78.6101798 Z M236.016312,91.1649334 L235.894421,91.103988 L235.711585,91.0430426 L235.894421,91.1649334 L236.016312,91.1649334 Z M219.804834,75.197237 L219.865779,75.2581824 L219.926724,75.0144008 L219.804834,75.197237 Z M241.74518,60.2046671 L241.562344,60.1437217 L241.623289,60.2656125 L241.74518,60.2046671 Z M244.487723,95.7967843 L244.426778,95.9186751 L244.548668,95.9796205 L244.487723,95.7967843 Z M241.928016,89.8850799 L242.049907,90.0069707 L241.988961,89.8241345 L241.928016,89.8850799 Z M219.378216,76.2942543 L219.31727,76.4161451 L219.500107,76.2942543 L219.378216,76.2942543 Z M246.559867,96.4062383 L246.377031,96.4671838 L246.316085,96.5281292 L246.498921,96.4671838 L246.559867,96.4062383 Z M210.175459,84.0952663 L210.29735,83.9733755 L210.053569,84.0952663 L210.175459,84.0952663 Z M210.358296,85.4970107 L210.236405,85.3141744 L210.236405,85.4360652 L210.358296,85.4970107 Z M241.196671,95.9796205 L241.07478,95.9796205 L241.257617,96.1015113 L241.196671,95.9796205 Z M225.777483,58.1325233 L225.899374,58.2544141 L226.021265,58.2544141 L225.777483,58.1325233 Z M239.673036,66.2992077 L239.368309,66.1773169 L239.429254,66.2382623 L239.673036,66.2992077 Z M219.561052,89.7022437 L219.500107,89.8241345 L219.621997,89.7022437 L219.621997,89.6412983 L219.561052,89.7022437 Z M244.670559,62.3377563 L244.487723,62.4596471 L244.487723,62.5205925 L244.670559,62.3377563 Z M211.881931,96.0405659 L211.942876,95.9796205 L212.003822,95.7967843 L211.881931,96.0405659 Z M218.951598,81.2917776 L218.829707,81.2308322 L218.890652,81.2917776 L219.012543,81.352723 L218.951598,81.2917776 Z M235.10213,59.8999401 L235.224021,59.8999401 L235.041185,59.8389947 L235.10213,59.8999401 Z M244.365832,79.8900333 L244.548668,79.8290879 L244.609614,79.7681425 L244.365832,79.8900333 Z M235.955366,59.2295406 L235.955366,59.290486 L236.016312,59.3514314 L235.955366,59.2295406 Z M241.928016,67.2743342 L241.867071,67.2133888 L241.988961,67.396225 L241.928016,67.2743342 Z M307.688109,91.1649334 L307.627164,91.8353329 L307.627164,92.5666778 L307.566218,92.9932956 L307.566218,93.1151864 L307.627164,93.1761318 L307.627164,94.0903129 L307.566218,95.004494 L307.383382,95.7358389 L306.895819,96.65002 L306.103529,97.259474 L305.372184,97.3204194 L291.659467,97.3204194 L290.56245,97.3813648 L289.160706,97.259474 L288.551252,96.8938016 L288.185579,96.3452929 L288.246525,96.0405659 L288.490306,96.2234021 L288.490306,95.9186751 L288.246525,95.4311119 L288.124634,95.6748935 L287.941798,95.7358389 L287.758961,95.004494 L287.637071,93.4199134 L287.637071,87.9957723 L287.698016,86.8378096 L287.698016,84.948502 L287.637071,84.1562117 L287.637071,62.8253196 L287.758961,60.5093941 L287.819907,59.6561585 L287.758961,58.5591411 L287.637071,57.4621238 L287.637071,56.730779 L287.819907,55.9994341 L288.185579,55.38998 L288.734088,54.9633622 L289.343542,55.2680892 L289.831105,55.7556525 L290.135832,55.5118708 L290.806232,55.0243076 L291.720413,54.780526 L292.695539,54.780526 L293.670666,54.7195806 L294.645792,54.7195806 L295.377137,54.8414714 L295.559973,55.1461984 L295.620919,55.2071438 L295.803755,55.2071438 L295.803755,55.5118708 L295.8647,55.6947071 L295.925646,55.4509254 L296.108482,55.085253 L296.778881,54.9024168 L297.632117,54.9024168 L298.241571,55.1461984 L298.729134,55.3290346 L299.094807,54.9633622 L299.521425,54.9024168 L299.58237,55.7556525 L299.216698,56.730779 L299.216698,57.035506 L299.338589,57.035506 L299.460479,57.1573968 L299.521425,56.730779 L299.826152,55.8165979 L300.496551,55.2071438 L301.654514,55.0243076 L302.690586,55.085253 L303.239095,55.2071438 L303.239095,55.085253 L303.421931,54.8414714 L303.970439,54.6586352 L304.640839,54.7195806 L305.676911,54.8414714 L306.652037,55.085253 L307.200546,55.5118708 L307.566218,56.5479427 L307.566218,58.9248136 L307.688109,60.1437217 L307.749055,60.936012 L307.688109,61.7283023 L307.688109,64.4099001 L307.749055,65.5678628 L307.688109,66.7258256 L307.627164,68.4322969 L307.688109,70.1387683 L307.688109,71.3576764 L307.627164,72.1499667 L307.627164,73.6736019 L307.688109,75.197237 L307.688109,77.452217 L307.505273,78.0616711 L307.383382,78.3663981 L307.383382,79.097743 L307.078655,79.7681425 L307.01771,79.8900333 L307.444328,80.3166511 L307.749055,81.1089414 L307.81,81.9012317 L307.749055,82.7544674 L307.566218,83.302976 L307.383382,83.1201398 L307.261491,82.9373036 L307.322437,83.4248668 L307.505273,84.5828296 L307.566218,85.8017377 L307.627164,86.594028 L307.81,87.3253728 L307.81,88.9708988 L307.749055,90.1288615 L307.688109,91.1649334 Z M285.747763,56.9136152 L285.869654,57.6449601 L285.869654,60.0218309 L285.808708,60.7531758 L285.747763,61.545466 L285.747763,70.7482224 L285.808708,71.8452397 L285.869654,72.5765846 L285.869654,74.0392743 L285.808708,74.7706192 L285.564927,75.501964 L284.833582,76.2333089 L283.858455,76.7208722 L282.822383,76.7818176 L271.486538,76.7818176 L269.536285,76.842763 L268.378322,76.842763 L267.586032,76.7208722 L266.793742,76.4770905 L266.123342,75.6238549 L265.635779,74.6487284 L265.513888,73.1860386 L265.513888,72.4546937 L265.574834,71.7233489 L265.635779,71.0529494 L265.696724,70.3216045 L265.940506,68.1275699 L266.001451,67.396225 L266.123342,66.6648802 L266.245233,65.8725899 L266.428069,65.141245 L266.610905,64.4708455 L266.854687,63.7395007 L267.159414,63.0081558 L267.464141,62.3987017 L267.707923,62.0939747 L267.768868,61.6673569 L268.01265,60.936012 L268.378322,60.2656125 L269.353449,59.0467044 L269.962903,58.5591411 L270.511411,58.0715779 L271.120866,57.5840146 L272.095992,56.9136152 L273.071119,56.3651065 L273.741518,56.0603795 L275.082317,55.5728162 L275.752716,55.38998 L276.484061,55.2071438 L277.946751,54.9633622 L278.61715,54.8414714 L279.226605,55.2071438 L279.409441,56.3651065 L279.470386,57.0964514 L279.836059,57.0964514 L279.897004,56.9745606 L279.653222,56.6088881 L279.775113,56.3041611 L279.897004,56.0603795 L280.201731,55.2680892 L280.87213,54.7195806 L281.969148,54.6586352 L283.675619,54.6586352 L284.5898,55.085253 L285.138309,55.7556525 L285.2602,55.8165979 L285.443036,56.1213249 L285.747763,56.9136152 Z M285.686818,85.1922836 L285.686818,86.594028 L285.747763,87.2644274 L285.747763,88.3004993 L285.808708,89.3975166 L285.747763,90.4335885 L285.625872,91.5915513 L285.564927,92.3228961 L285.686818,93.2980226 L285.747763,94.3340945 L285.747763,95.004494 L285.625872,95.7358389 L285.016418,96.5281292 L283.675619,97.0766378 L282.761438,96.954747 L282.151984,96.8938016 L281.420639,96.8328562 L280.689294,96.8328562 L279.836059,97.1375832 L278.739041,97.259474 L277.398242,97.259474 L275.752716,97.3813648 L274.594754,97.0766378 L274.168136,96.7719108 L273.863409,96.954747 L273.193009,97.1985286 L272.339774,97.3204194 L271.242756,97.3813648 L268.926831,97.3813648 L267.34225,97.1985286 L266.306178,96.8328562 L265.879561,96.2234021 L265.696724,95.4920573 L265.574834,94.7607124 L265.574834,92.5057324 L265.635779,91.408715 L265.635779,84.1562117 L265.696724,82.693522 L265.696724,81.5355593 L265.818615,80.743269 L266.001451,79.9509787 L266.428069,79.3415246 L267.098469,78.9149068 L268.256431,78.7320706 L269.841012,78.6711252 L281.054967,78.6711252 L282.822383,78.6101798 L283.553728,78.6711252 L284.5898,79.097743 L285.382091,79.8290879 L285.625872,80.5604328 L285.747763,81.352723 L285.747763,84.0952663 L285.686818,85.1922836 Z M300.37466,95.7358389 L300.191824,95.4920573 L299.826152,95.0654394 L298.972916,94.1512583 L297.99779,93.5418043 L297.754008,93.5418043 L297.754008,93.7855859 L297.814953,93.6636951 L298.058735,93.7855859 L298.79008,94.4559854 L299.460479,95.4311119 L299.765206,96.1624567 L300.069933,96.1015113 L300.37466,95.7358389 Z M304.579893,61.8501931 L304.336112,62.4596471 L304.579893,62.6424834 L305.250293,62.5815379 L305.615965,62.4596471 L305.494075,61.9720839 L305.067457,61.6673569 L304.579893,61.8501931 Z M306.652037,77.7569441 L306.225419,77.2693808 L305.494075,77.0255992 L305.250293,76.9646538 L305.55502,77.2693808 L305.676911,77.8788349 L305.494075,78.1835619 L305.189348,78.1835619 L305.494075,78.2445073 L305.798802,77.9397803 L306.103529,77.8788349 L306.408256,78.1835619 L306.712983,78.2445073 L306.652037,77.7569441 Z M304.823675,80.6213782 L305.250293,80.6213782 L305.006511,80.0728695 L304.214221,80.1338149 L303.909494,80.9261052 L304.031385,81.5355593 L304.153276,81.5965047 L304.214221,81.1089414 L304.458003,80.5604328 L304.823675,80.6213782 Z M296.230373,64.6536818 L296.717936,65.0193542 L296.961718,65.0193542 L296.961718,64.6536818 L296.596045,64.3489547 L296.047537,64.1661185 L295.74281,63.8613915 L295.681864,63.4347736 L295.620919,63.190992 L295.499028,63.1300466 L295.377137,63.190992 L295.499028,63.3128828 L295.620919,63.3128828 L295.620919,63.495719 L295.681864,63.8613915 L295.803755,64.2270639 L296.230373,64.6536818 Z M304.397057,59.7171039 L304.336112,58.985759 L304.031385,59.1076498 L303.970439,59.8999401 L304.031385,60.631285 L304.09233,61.1188482 L304.214221,61.0579028 L304.214221,60.5703395 L304.397057,59.7171039 Z M306.712983,73.6126565 L306.591092,73.3688748 L306.530146,72.63753 L306.408256,71.5405126 L306.225419,70.6263316 L306.103529,70.3825499 L306.103529,70.8701132 L306.164474,71.6624035 L306.286365,72.4546937 L306.469201,73.1860386 L306.712983,73.6126565 Z M298.058735,58.1325233 L298.180626,58.985759 L298.302517,59.3514314 L298.668189,59.290486 L298.668189,58.8029228 L298.302517,58.1325233 L298.11968,57.8887417 L297.99779,57.7668509 L298.058735,58.1325233 Z M292.695539,60.936012 L292.634594,60.7531758 L292.634594,60.8750666 L292.512703,61.240739 L292.268921,61.6064115 L292.207976,62.2158655 L292.390812,62.6424834 L292.390812,62.8253196 L292.207976,63.0081558 L292.329867,63.0081558 L292.512703,62.886265 L292.634594,62.7034288 L292.451758,62.6424834 L292.512703,62.1549201 L292.695539,61.3626298 L292.695539,60.936012 Z M300.862224,62.2158655 L300.801278,62.4596471 L300.618442,62.5205925 L300.801278,62.6424834 L301.106005,62.7643742 L301.288842,62.9472104 L301.349787,63.1300466 L301.349787,62.9472104 L301.288842,62.7034288 L301.227896,62.6424834 L301.04506,61.9111385 L300.923169,61.4845206 L300.862224,61.1797936 L300.801278,60.9969574 L300.740333,61.0579028 L300.801278,61.6064115 L300.862224,62.2158655 Z M297.571172,62.5815379 L297.32739,63.1300466 L297.083609,63.4347736 L296.900772,63.495719 L296.961718,63.6176099 L297.388336,63.6176099 L297.571172,63.1300466 L297.814953,62.2768109 L297.754008,61.6673569 L297.693063,61.8501931 L297.571172,62.5815379 Z M296.717936,71.7233489 L297.022663,71.8452397 L297.32739,71.6624035 L297.388336,71.4795672 L297.32739,71.2357856 L297.388336,71.0529494 L297.388336,70.9310586 L296.778881,71.3576764 L296.717936,71.7233489 Z M305.189348,68.0056791 L305.311238,68.5541877 L305.311238,68.6151332 L305.372184,68.2494607 L305.615965,67.5790613 L305.981638,66.9696072 L305.920692,66.8477164 L305.676911,67.0305526 L305.433129,67.396225 L305.189348,68.0056791 Z M302.324913,78.1226165 L302.263968,77.7569441 L302.203023,77.3303262 L302.081132,76.9037084 L301.654514,76.7818176 L301.776405,77.2084354 L302.081132,77.7569441 L302.203023,78.1226165 L302.324913,78.1226165 Z M298.851025,90.2507523 L299.033862,89.4584621 L298.972916,89.2756258 L298.79008,89.5803529 L298.424407,89.8241345 L298.424407,90.3116977 L298.851025,90.2507523 Z M300.37466,74.1611651 L300.130879,73.4907656 L299.765206,73.0641478 L299.643316,73.1860386 L299.948043,73.8564381 L300.313715,74.4049467 L300.37466,74.1611651 Z M288.673142,58.985759 L288.734088,59.1685952 L288.795033,59.1076498 L288.916924,59.1685952 L289.038815,59.1685952 L289.038815,58.8638682 L289.160706,58.4372503 L289.282597,58.2544141 L289.160706,58.1325233 L288.855979,58.3763049 L288.673142,58.985759 Z M299.399534,74.4049467 L299.277643,74.587783 L299.033862,74.8315646 L299.277643,75.1362916 L299.643316,75.1362916 L299.643316,74.7706192 L299.521425,74.4658921 L299.399534,74.4049467 Z M305.676911,74.9534554 L305.676911,74.6487284 L305.55502,74.89251 L305.311238,75.0753462 L304.884621,75.3191278 L304.701784,75.8066911 L304.823675,75.8066911 L305.067457,75.5629095 L305.372184,75.3191278 L305.676911,74.9534554 Z M293.975393,95.3701664 L294.036338,94.5169308 L293.792557,94.5778762 L293.853502,95.0654394 L293.792557,95.5530027 L293.48783,95.9796205 L293.60972,96.2234021 L293.975393,95.3701664 Z M293.061212,59.8999401 L292.81743,59.7171039 L292.695539,60.2046671 L292.634594,60.6922304 L292.756485,60.6922304 L293.000266,60.5093941 L293.061212,59.8999401 Z M303.726658,62.2768109 L303.543822,62.1549201 L303.543822,62.5205925 L303.909494,63.0691012 L304.458003,63.1300466 L304.518948,63.0081558 L304.09233,62.886265 L303.787603,62.6424834 L303.726658,62.2768109 Z M304.701784,69.5293142 L304.275166,69.4683688 L304.09233,69.346478 L304.214221,69.5902597 L304.640839,69.8949867 L304.884621,70.1997137 L305.006511,69.8949867 L304.701784,69.5293142 Z M299.033862,69.8340413 L299.58237,70.0778229 L300.130879,70.1387683 L299.826152,69.8340413 L299.216698,69.6512051 L299.033862,69.8340413 Z M305.067457,93.2370772 L305.189348,93.7855859 L305.494075,94.3340945 L305.55502,94.2122037 L305.311238,93.7246405 L305.311238,93.2980226 L305.372184,93.054241 L305.250293,92.9323502 L305.067457,93.054241 L305.067457,93.2370772 Z M296.291318,90.4335885 L296.352264,91.103988 L296.656991,91.3477696 L296.596045,90.9820972 L296.5351,90.494534 L296.474154,90.1898069 L296.291318,90.4335885 Z M278.678096,56.8526698 L278.49526,56.4260519 L278.251478,56.3651065 L278.068642,56.6698336 L278.434314,56.9745606 L278.678096,56.8526698 Z M293.670666,56.3041611 L294.036338,56.7917244 L294.036338,56.4260519 L293.792557,55.7556525 L293.792557,55.6337617 L293.670666,55.8165979 L293.670666,56.3041611 Z M302.812477,57.2792876 L302.751531,57.4011784 L303.056258,57.4011784 L303.787603,57.340233 L304.031385,57.1573968 L303.421931,57.1573968 L302.812477,57.2792876 Z M293.061212,92.444787 L292.939321,92.5666778 L293.000266,92.8714048 L293.122157,93.1151864 L292.81743,93.358968 L292.695539,93.5418043 L292.939321,93.5418043 L293.122157,93.358968 L293.183103,92.8714048 L293.061212,92.444787 Z M297.32739,96.1015113 L296.961718,95.9796205 L296.656991,96.2234021 L296.778881,96.1624567 L296.900772,96.3452929 L297.266445,96.4671838 L297.32739,96.1015113 Z M291.720413,65.5069174 L291.964194,65.8116445 L292.268921,65.5678628 L292.02514,65.2021904 L291.720413,65.5069174 Z M293.000266,58.0106325 L293.122157,58.4372503 L293.548775,58.9248136 L293.670666,58.9248136 L293.548775,58.8029228 L293.548775,58.6200866 L293.48783,58.4981957 L293.183103,58.2544141 L293.000266,58.0106325 Z M302.62964,76.4161451 L302.812477,75.9285819 L302.812477,75.6238549 L302.62964,75.7457457 L302.446804,76.1723635 L302.62964,76.4161451 Z M293.792557,88.2395539 L293.48783,88.4833356 L293.548775,88.6661718 L293.853502,88.6661718 L294.036338,88.3614447 L293.792557,88.2395539 Z M305.250293,56.8526698 L305.189348,56.9136152 L305.433129,57.0964514 L305.737856,56.9745606 L305.676911,56.730779 L305.372184,56.7917244 L305.250293,56.8526698 Z M300.984115,57.8277963 L301.166951,57.8277963 L301.349787,57.5230692 L301.471678,57.340233 L301.410732,57.2183422 L301.166951,57.4621238 L300.984115,57.8277963 Z M299.704261,70.992004 L299.58237,70.7482224 L299.399534,70.8091678 L299.521425,71.1138948 L299.704261,71.4186218 L299.704261,70.992004 Z M292.451758,89.8241345 L292.573648,89.7631891 L292.268921,89.6412983 L291.903249,89.6412983 L292.086085,89.8850799 L292.451758,89.8241345 Z M303.30004,70.7482224 L303.482876,70.8701132 L303.665712,70.9310586 L303.604767,71.1748402 L303.604767,71.296731 L303.665712,71.1748402 L303.726658,70.9310586 L303.726658,70.7482224 L303.482876,70.6263316 L303.30004,70.7482224 Z M305.250293,73.3688748 L305.128402,73.6736019 L305.311238,73.9783289 L305.433129,73.6736019 L305.250293,73.3688748 Z M294.28012,59.7171039 L293.975393,60.0218309 L294.097284,60.2046671 L294.402011,59.8999401 L294.28012,59.7171039 Z M285.077364,92.2619507 L284.955473,92.2619507 L284.772636,92.5666778 L284.650746,92.9323502 L284.711691,93.054241 L284.833582,92.8714048 L284.894527,92.5666778 L284.955473,92.3838415 L285.077364,92.2619507 Z M279.836059,91.3477696 L279.592277,91.7743875 L279.592277,92.0181691 L279.775113,91.7743875 L279.957949,91.4696605 L279.836059,91.3477696 Z M294.462956,56.5479427 L294.584847,56.7917244 L294.645792,56.7917244 L294.706738,56.6698336 L294.706738,56.4260519 L294.523901,56.2432157 L294.462956,56.5479427 Z M294.402011,64.1051731 L294.341065,63.9223369 L294.219174,63.4347736 L294.097284,63.6785553 L294.219174,64.0442277 L294.402011,64.1051731 Z M288.490306,90.2507523 L288.673142,90.0679161 L288.551252,89.7022437 L288.368415,89.8850799 L288.490306,90.2507523 Z M298.058735,77.2693808 L297.99779,77.452217 L298.180626,77.6350533 L298.363462,77.7569441 L298.363462,77.5131625 L298.058735,77.2693808 Z M283.431838,95.309221 L283.127111,95.004494 L283.00522,95.004494 L283.066165,95.0654394 L283.249001,95.3701664 L283.431838,95.6139481 L283.431838,95.309221 Z M303.117204,83.5467577 L303.239095,83.2420306 L303.239095,82.5716312 L303.178149,82.5106858 L303.178149,82.693522 L303.117204,83.1810852 L303.117204,83.5467577 Z M282.700493,55.38998 L283.00522,55.3290346 L282.639547,55.1461984 L282.33482,55.2071438 L282.700493,55.38998 Z M295.986591,79.1586884 L296.230373,78.4882889 L296.230373,78.3054527 L295.803755,79.40247 L295.986591,79.1586884 Z M300.069933,80.3166511 L300.008988,80.3775965 L299.826152,80.8042144 L299.765206,81.2308322 L299.948043,80.8651598 L300.069933,80.3166511 Z M302.385859,56.1213249 L302.263968,56.3651065 L302.446804,56.4260519 L302.568695,56.4260519 L302.690586,56.6088881 L302.62964,56.3651065 L302.385859,56.1213249 Z M302.446804,87.6300999 L302.446804,87.3863182 L302.263968,87.1425366 L302.203023,87.3253728 L302.324913,87.5691545 L302.446804,87.6300999 Z M280.445513,55.6337617 L280.506458,55.6947071 L280.87213,55.6337617 L280.994021,55.5728162 L281.054967,55.5118708 L280.994021,55.38998 L280.811185,55.5118708 L280.689294,55.6337617 L280.506458,55.5728162 L280.445513,55.6337617 Z M273.071119,89.3975166 L272.949228,89.0927896 L272.949228,89.2756258 L272.827337,89.7022437 L272.949228,89.7022437 L273.071119,89.3975166 Z M298.79008,78.6101798 L298.729134,78.4882889 L298.546298,78.6101798 L298.485353,78.7320706 L298.668189,78.8539614 L298.79008,78.6101798 Z M298.668189,71.6014581 L298.607244,71.3576764 L298.363462,71.0529494 L298.424407,71.4186218 L298.668189,71.6014581 Z M293.122157,78.9758522 L293.122157,78.8539614 L292.939321,78.7320706 L292.878375,78.793016 L292.695539,78.8539614 L292.512703,78.7320706 L292.634594,78.8539614 L293.122157,78.9758522 Z M302.203023,93.6027497 L302.324913,93.7855859 L302.446804,93.4808589 L302.385859,93.2980226 L302.203023,93.6027497 Z M301.532623,93.6027497 L301.410732,93.4808589 L301.227896,93.6636951 L301.410732,93.8465313 L301.532623,93.6027497 Z M269.170613,65.3850266 L268.987776,65.445972 L268.987776,65.6288083 L269.048722,65.8116445 L269.170613,65.6288083 L269.170613,65.3850266 Z M300.008988,61.3626298 L300.130879,61.1188482 L300.008988,60.936012 L299.887097,61.1797936 L300.008988,61.3626298 Z M279.836059,95.7358389 L279.714168,95.4920573 L279.653222,95.4311119 L279.592277,95.6139481 L279.714168,95.8577297 L279.836059,95.7358389 Z M301.83735,73.9783289 L301.959241,74.1611651 L302.142077,74.2830559 L302.203023,74.4658921 L302.203023,74.587783 L302.263968,74.4658921 L302.203023,74.2830559 L302.020186,74.0392743 L301.83735,73.9783289 Z M306.773928,86.4721372 L306.895819,86.7768642 L306.956764,86.8378096 L306.956764,86.7768642 L306.895819,86.4721372 L306.773928,86.2893009 L306.773928,86.4721372 Z M302.020186,78.9758522 L301.959241,78.793016 L301.83735,78.6711252 L301.715459,78.6711252 L301.776405,78.7320706 L301.898296,78.793016 L301.898296,78.9758522 L302.020186,79.1586884 L302.020186,78.9758522 Z M306.286365,61.7283023 L306.469201,61.9720839 L306.469201,61.8501931 L306.408256,61.6064115 L306.286365,61.545466 L306.286365,61.7283023 Z M284.955473,94.2122037 L284.833582,93.9684221 L284.650746,94.2122037 L284.955473,94.2122037 Z M299.399534,68.3104061 L299.643316,68.3104061 L299.399534,68.1885153 L299.277643,68.0666245 L299.216698,68.1885153 L299.399534,68.3104061 Z M284.102237,58.0106325 L284.102237,57.8887417 L283.980346,57.7668509 L283.858455,57.8277963 L283.980346,58.0106325 L284.102237,58.0106325 Z M305.433129,64.2880093 L305.372184,64.1051731 L305.311238,64.2880093 L305.55502,64.5317909 L305.676911,64.5317909 L305.55502,64.4099001 L305.433129,64.4099001 L305.433129,64.2880093 Z M281.847257,93.1761318 L282.030093,93.358968 L282.212929,93.358968 L282.273875,93.2980226 L282.030093,93.2980226 L281.908202,93.054241 L281.847257,93.1761318 Z M284.833582,60.4484487 L284.955473,60.3875033 L284.894527,60.2656125 L284.711691,60.3875033 L284.650746,60.5093941 L284.833582,60.4484487 Z M302.142077,60.9969574 L301.776405,61.0579028 L301.776405,61.240739 L301.898296,61.0579028 L302.142077,61.0579028 L302.385859,61.1188482 L302.142077,60.9969574 Z M290.867177,90.5554794 L290.379614,90.0679161 L290.623395,90.4335885 L290.867177,90.5554794 Z M301.471678,56.1822703 L301.410732,56.3041611 L301.654514,56.1822703 L301.654514,55.9994341 L301.471678,56.1822703 Z M307.078655,65.8116445 L307.139601,66.1163715 L307.200546,65.9335353 L307.200546,65.6897537 L307.078655,65.8116445 Z M289.160706,63.2519374 L289.160706,63.0691012 L288.97787,63.0691012 L288.97787,63.190992 L289.160706,63.2519374 Z M303.787603,84.2781025 L303.970439,84.3999933 L304.153276,84.643775 L304.09233,84.3999933 L303.726658,84.2171571 L303.787603,84.2781025 Z M306.652037,93.4199134 L306.469201,93.2980226 L306.408256,93.358968 L306.530146,93.4808589 L306.652037,93.5418043 L306.652037,93.4199134 Z M300.25277,71.6624035 L300.37466,72.0280759 L300.37466,71.9061851 L300.313715,71.6014581 L300.25277,71.4186218 L300.25277,71.6624035 Z M282.822383,92.0181691 L282.944274,92.1400599 L282.944274,91.9572237 L282.822383,91.7743875 L282.822383,92.0181691 Z M294.036338,80.4994874 L293.853502,80.6823236 L293.975393,80.743269 L294.097284,80.4994874 L294.036338,80.4994874 Z M274.960426,96.4671838 L274.838535,96.4062383 L274.655699,96.2843475 L274.594754,96.4062383 L274.899481,96.4671838 L274.960426,96.4671838 Z M290.989068,56.0603795 L291.050013,55.7556525 L290.867177,55.8775433 L290.989068,56.0603795 Z M297.875899,94.8826032 L297.632117,94.9435486 L297.693063,95.004494 L297.936844,95.004494 L297.875899,94.8826032 Z M298.851025,63.5566644 L298.79008,63.5566644 L298.911971,63.8004461 L299.033862,63.8004461 L298.851025,63.5566644 Z M302.812477,86.4721372 L302.812477,86.1064647 L302.690586,86.1064647 L302.812477,86.4721372 Z M281.298748,90.5554794 L281.176858,90.3726431 L281.054967,90.3116977 L281.176858,90.5554794 L281.298748,90.5554794 Z M282.212929,95.309221 L282.030093,95.4920573 L282.030093,95.6139481 L282.212929,95.4311119 L282.212929,95.309221 Z M299.704261,65.2021904 L299.704261,65.0802996 L299.521425,64.8974634 L299.521425,65.0193542 L299.704261,65.2021904 Z M295.620919,80.9261052 L295.499028,80.9870506 L295.620919,81.1089414 L295.74281,81.047996 L295.620919,80.9261052 Z M303.787603,78.9758522 L303.665712,79.0367976 L303.604767,79.2805792 L303.665712,79.2805792 L303.787603,78.9758522 Z M296.474154,75.501964 L296.291318,75.3800732 L296.352264,75.5629095 L296.474154,75.6238549 L296.474154,75.501964 Z M280.628349,57.2183422 L280.811185,57.2792876 L281.176858,57.4621238 L281.115912,57.340233 L280.994021,57.340233 L280.75024,57.2183422 L280.628349,57.2183422 Z M269.841012,95.309221 L269.658176,95.2482756 L269.658176,95.3701664 L269.780067,95.4311119 L269.841012,95.309221 Z M295.620919,61.8501931 L295.803755,62.1549201 L295.986591,62.5205925 L295.8647,62.1549201 L295.620919,61.8501931 Z M299.643316,92.9323502 L299.765206,92.8714048 L299.58237,92.6276232 L299.643316,92.9323502 Z M282.091039,57.0964514 L282.151984,57.035506 L282.030093,56.8526698 L281.969148,56.9136152 L282.091039,57.0964514 Z M299.887097,77.5131625 L299.826152,77.3912716 L299.704261,77.452217 L299.765206,77.5741079 L299.887097,77.5131625 Z M284.346019,84.5828296 L284.467909,84.643775 L284.528855,84.7047204 L284.467909,84.5218842 L284.346019,84.4609387 L284.346019,84.5828296 Z M290.074887,95.5530027 L289.952996,95.6139481 L290.013941,95.7967843 L290.074887,95.7358389 L290.074887,95.5530027 Z M276.36217,56.1213249 L276.24028,56.2432157 L276.301225,56.4260519 L276.36217,56.2432157 L276.36217,56.1213249 Z M294.584847,92.6276232 L294.645792,92.5057324 L294.523901,92.444787 L294.462956,92.5666778 L294.584847,92.6276232 Z M296.352264,68.6760786 L296.169427,68.4932423 L295.925646,68.3713515 L296.047537,68.4932423 L296.352264,68.6760786 Z M295.316192,56.730779 L295.499028,56.730779 L295.438083,56.6088881 L295.316192,56.6088881 L295.316192,56.730779 Z M296.352264,93.8465313 L296.5351,93.7246405 L296.413209,93.6027497 L296.352264,93.8465313 Z M300.923169,89.7022437 L300.984115,89.5803529 L300.923169,89.3975166 L300.862224,89.5194075 L300.923169,89.7022437 Z M305.128402,58.3153595 L305.250293,58.3763049 L305.311238,58.2544141 L305.189348,58.1934687 L305.128402,58.3153595 Z M301.349787,72.8203662 L301.471678,72.7594208 L301.349787,72.63753 L301.288842,72.6984754 L301.349787,72.8203662 Z M300.191824,84.1562117 L300.130879,84.2781025 L300.069933,84.4609387 L300.008988,84.5218842 L300.130879,84.4609387 L300.191824,84.2781025 L300.191824,84.1562117 Z M270.816138,80.0728695 L270.694248,79.8290879 L270.633302,79.7681425 L270.694248,80.0119241 L270.816138,80.0728695 Z M298.180626,69.2855326 L298.363462,69.4074234 L298.363462,69.2245872 L298.180626,69.2855326 Z M304.153276,92.2010053 L303.970439,92.2010053 L303.848549,92.3228961 L304.09233,92.2619507 L304.153276,92.2010053 Z M299.58237,59.3514314 L299.643316,59.2295406 L299.399534,59.2295406 L299.58237,59.3514314 Z M282.212929,81.352723 L282.273875,81.1698868 L282.091039,81.2308322 L282.212929,81.352723 Z M278.982823,83.0591944 L278.799987,82.8154128 L278.860932,83.0591944 L278.982823,83.0591944 Z M299.521425,78.9149068 L299.58237,78.6101798 L299.460479,78.7320706 L299.521425,78.9149068 Z M295.07241,87.0206458 L294.950519,87.1425366 L295.133356,87.203482 L295.07241,87.0206458 Z M283.066165,83.4858123 L283.188056,83.3639214 L283.00522,83.302976 L283.066165,83.4858123 Z M294.767683,96.1624567 L294.645792,96.1624567 L294.523901,96.2234021 L294.645792,96.2843475 L294.767683,96.1624567 Z M290.135832,58.681032 L290.135832,58.8029228 L290.379614,58.7419774 L290.135832,58.681032 Z M295.316192,64.7146272 L295.438083,64.836518 L295.438083,64.5927364 L295.316192,64.7146272 Z M277.459188,82.998249 L277.520133,82.9373036 L277.459188,82.7544674 L277.398242,82.8154128 L277.459188,82.998249 Z M283.858455,61.6673569 L283.858455,61.6064115 L283.79751,61.4845206 L283.675619,61.4235752 L283.736565,61.545466 L283.858455,61.6673569 Z M307.078655,89.2146804 L306.956764,89.2756258 L306.834874,89.3975166 L306.956764,89.3975166 L307.078655,89.2146804 Z M283.614674,93.2370772 L283.492783,93.1151864 L283.431838,93.1151864 L283.553728,93.2980226 L283.614674,93.2370772 Z M291.110959,63.5566644 L290.989068,63.2519374 L290.928123,63.3128828 L291.110959,63.5566644 Z M304.640839,89.7631891 L304.518948,89.8850799 L304.518948,89.9460253 L304.640839,89.8850799 L304.640839,89.7631891 Z M294.036338,66.9696072 L293.853502,67.1524434 L293.975393,67.1524434 L294.036338,66.9696072 Z M271.73032,65.2631358 L271.669374,65.445972 L271.608429,65.5069174 L271.425593,65.5678628 L271.608429,65.5678628 L271.669374,65.5069174 L271.73032,65.2631358 Z M303.360985,69.041751 L303.360985,69.2245872 L303.482876,69.1026964 L303.360985,69.041751 Z M298.546298,87.5082091 L298.668189,87.5691545 L298.668189,87.3863182 L298.546298,87.5082091 Z M307.261491,66.2382623 L307.139601,66.1773169 L307.200546,66.2992077 L307.322437,66.3601531 L307.261491,66.2382623 Z M297.266445,77.6959987 L297.022663,77.6350533 L297.144554,77.7569441 L297.266445,77.6959987 Z M293.60972,61.9720839 L293.60972,61.7892477 L293.48783,61.9111385 L293.60972,61.9720839 Z M289.404487,57.2183422 L289.282597,57.0964514 L289.221651,57.2183422 L289.404487,57.2183422 Z M266.367124,74.7706192 L266.306178,74.7096738 L266.001451,74.587783 L266.062397,74.6487284 L266.367124,74.7706192 Z M270.511411,63.0081558 L270.450466,62.8253196 L270.328575,62.8253196 L270.511411,63.0081558 Z M294.889574,94.7607124 L294.889574,94.8826032 L295.07241,94.8216578 L294.889574,94.7607124 Z M292.086085,56.6698336 L292.390812,56.7917244 L292.451758,56.7917244 L292.207976,56.6698336 L292.086085,56.6698336 Z M290.684341,96.2234021 L290.56245,96.2234021 L290.684341,96.4062383 L290.684341,96.2234021 Z M297.510226,56.4260519 L297.693063,56.4869973 L297.693063,56.4260519 L297.571172,56.3651065 L297.510226,56.4260519 Z M290.135832,76.5989814 L290.257723,76.5989814 L290.440559,76.4770905 L290.257723,76.538036 L290.135832,76.5989814 Z M268.01265,96.0405659 L267.829814,96.1015113 L267.646977,96.1015113 L267.768868,96.1624567 L268.01265,96.0405659 Z M292.086085,96.1624567 L291.964194,96.3452929 L292.147031,96.2234021 L292.086085,96.1624567 Z M285.199254,58.1325233 L285.016418,58.1934687 L285.138309,58.2544141 L285.199254,58.1325233 Z M294.950519,57.6449601 L295.07241,57.5840146 L295.011465,57.4621238 L294.950519,57.6449601 Z M291.23285,60.4484487 L290.989068,60.936012 L291.171904,60.631285 L291.23285,60.4484487 Z M297.632117,87.0815912 L297.754008,87.203482 L297.632117,86.9597004 L297.632117,87.0815912 Z M296.961718,81.4136684 L297.083609,81.2917776 L296.900772,81.352723 L296.961718,81.4136684 Z M271.303702,65.445972 L271.425593,65.5678628 L271.303702,65.3850266 L271.242756,65.3240812 L271.303702,65.445972 Z M301.471678,95.9186751 L301.471678,95.9796205 L301.410732,96.1015113 L301.532623,95.9796205 L301.471678,95.9186751 Z M271.608429,67.7618975 L271.791265,67.6400067 L271.608429,67.7009521 L271.608429,67.7618975 Z M288.916924,91.7743875 L288.795033,91.8353329 L288.734088,91.8962783 L288.855979,91.8353329 L288.916924,91.7743875 Z" id="MILKA"></path>
        </g>
    </g>
</svg>