<?xml version="1.0" encoding="UTF-8"?>
<svg width="350px" height="150px" viewBox="0 0 350 150" version="1.1" xmlns="http://www.w3.org/2000/svg" xmlns:xlink="http://www.w3.org/1999/xlink">
    <!-- Generator: Sketch 42 (36781) - http://www.bohemiancoding.com/sketch -->
    <title>experience-company-logo1</title>
    <desc>Created with Sketch.</desc>
    <defs></defs>
    <g id="Page-1" stroke="none" stroke-width="1" fill="none" fill-rule="evenodd">
        <g id="experience-company-logo1">
            <rect id="Rectangle" fill="#AAAAAA" x="0" y="0" width="350" height="150"></rect>
            <path d="M33.71,91.6579169 L40.1331667,91.6579169 L40.1331667,59.5420831 L33.71,59.5420831 L33.71,91.6579169 Z M77.0663755,59.5420831 L77.0663755,81.4432975 L65.2459645,59.5420831 L58.3321392,59.5420831 L58.3321392,91.6579169 L64.353858,91.6579169 L64.353858,69.7567025 L76.174269,91.6579169 L83.0880943,91.6579169 L83.0880943,59.5420831 L77.0663755,59.5420831 Z M101.287067,59.5420831 L118.014064,59.5420831 C121.760911,59.5420831 124.34802,62.129192 124.34802,65.8760392 L124.34802,85.3239608 C124.34802,89.070808 121.760911,91.6579169 118.014064,91.6579169 L101.287067,91.6579169 L101.287067,59.5420831 Z M107.710234,85.5915927 L116.408272,85.5915927 C117.389589,85.5915927 117.924853,85.0563288 117.924853,84.0750117 L117.924853,67.1249883 C117.924853,66.1436712 117.389589,65.6084073 116.408272,65.6084073 L107.710234,65.6084073 L107.710234,85.5915927 Z M164.22518,59.5420831 L157.802013,59.5420831 L157.802013,84.253433 C157.802013,85.2347501 157.266749,85.770014 156.285432,85.770014 L149.237791,85.770014 C148.256474,85.770014 147.72121,85.2347501 147.72121,84.253433 L147.72121,59.5420831 L141.298043,59.5420831 L141.298043,85.5023821 C141.298043,89.2492293 143.885152,91.8363382 147.631999,91.8363382 L157.891224,91.8363382 C161.638071,91.8363382 164.22518,89.2492293 164.22518,85.5023821 L164.22518,59.5420831 Z M196.920883,69.4444652 L203.165628,69.4444652 L203.165628,65.6976179 C203.165628,61.9507707 200.578519,59.3636618 196.831672,59.3636618 L187.375343,59.3636618 C183.628496,59.3636618 181.041387,61.9507707 181.041387,65.6976179 L181.041387,71.1394675 C181.041387,74.7078935 183.985339,76.8043438 187.464554,77.5626343 L195.761144,79.3468473 C196.742461,79.5698739 197.277725,79.8821112 197.277725,80.8634283 L197.277725,84.253433 C197.277725,85.2347501 196.742461,85.770014 195.761144,85.770014 L188.802714,85.770014 C187.821397,85.770014 187.286133,85.2347501 187.286133,84.253433 L187.286133,81.3986922 L181.041387,81.3986922 L181.041387,85.5023821 C181.041387,89.2492293 183.628496,91.8363382 187.375343,91.8363382 L197.366936,91.8363382 C201.113783,91.8363382 203.700892,89.2492293 203.700892,85.5023821 L203.700892,79.7036899 C203.700892,76.1352639 200.756941,74.0388136 197.277725,73.2805231 L188.981135,71.4963101 C187.999818,71.2732835 187.464554,70.9610462 187.464554,69.9797291 L187.464554,66.946567 C187.464554,65.9652499 187.999818,65.429986 188.981135,65.429986 L195.404302,65.429986 C196.385619,65.429986 196.920883,65.9652499 196.920883,66.946567 L196.920883,69.4444652 Z M241.303181,65.5191966 L241.303181,59.5420831 L218.108412,59.5420831 L218.108412,65.5191966 L226.494213,65.5191966 L226.494213,91.6579169 L232.91738,91.6579169 L232.91738,65.5191966 L241.303181,65.5191966 Z M280.778893,91.6579169 L273.865068,91.6579169 L268.69085,79.7482952 L263.516632,79.7482952 L263.516632,91.6579169 L257.093466,91.6579169 L257.093466,59.5420831 L273.46362,59.5420831 C277.210467,59.5420831 279.797576,62.129192 279.797576,65.8760392 L279.797576,73.4143391 C279.797576,76.4475012 278.102574,78.7223727 275.426254,79.4806632 L280.778893,91.6579169 Z M273.374409,72.2546007 L273.374409,67.1249883 C273.374409,66.1436712 272.839145,65.6084073 271.857828,65.6084073 L263.516632,65.6084073 L263.516632,73.7711817 L271.857828,73.7711817 C272.839145,73.7711817 273.374409,73.2359178 273.374409,72.2546007 Z M310.307618,91.6579169 L310.307618,80.551191 L320.21,59.5420831 L313.162359,59.5420831 L307.096035,73.2805231 L301.02971,59.5420831 L293.982069,59.5420831 L303.884451,80.551191 L303.884451,91.6579169 L310.307618,91.6579169 Z" id="INDUSTRY" fill="#FFFFFF"></path>
        </g>
    </g>
</svg>